<svg id="Layer_1" data-name="Layer 1" xmlns="http://www.w3.org/2000/svg" xmlns:xlink="http://www.w3.org/1999/xlink" viewBox="0 0 3287.93 2785.28"><defs><style>.cls-1{mask:url(#mask);}.cls-2,.cls-4{mix-blend-mode:multiply;}.cls-2{fill:url(#linear-gradient);}.cls-3{mask:url(#mask-2);}.cls-4{fill:url(#linear-gradient-2);}.cls-5{fill:#fff;}.cls-6{opacity:0.25;}.cls-7{fill:#371a45;}.cls-8{fill:#d5d4d6;}.cls-19,.cls-21,.cls-9{opacity:0.7;}.cls-10{fill:none;stroke:#371a45;stroke-linecap:round;stroke-miterlimit:10;stroke-width:24.42px;}.cls-11{fill:#e81818;}.cls-12{fill:#e7a900;}.cls-13{fill:#fffd01;}.cls-14{opacity:0.3;}.cls-15{opacity:0.6;}.cls-16{fill:#22a7f0;}.cls-17{fill:#ffda00;}.cls-18{mask:url(#mask-3);}.cls-19{fill:url(#linear-gradient-3);}.cls-20{mask:url(#mask-4);}.cls-21{fill:url(#linear-gradient-4);}.cls-22{opacity:0.35;}.cls-23{fill:#1d1d1d;}.cls-24{fill:#d66b09;}.cls-25{fill:#32b1d1;}.cls-26{fill:#921fe5;}.cls-27{opacity:0.5;}.cls-28{fill:#111a28;}.cls-29{filter:url(#luminosity-noclip-4);}.cls-30{filter:url(#luminosity-noclip-3);}.cls-31{filter:url(#luminosity-noclip-2);}.cls-32{filter:url(#luminosity-noclip);}</style><filter id="luminosity-noclip" x="1629.59" y="-10192" width="263.82" height="32766" filterUnits="userSpaceOnUse" color-interpolation-filters="sRGB"><feFlood flood-color="#fff" result="bg"/><feBlend in="SourceGraphic" in2="bg"/></filter><mask id="mask" x="1629.59" y="-10192" width="263.82" height="32766" maskUnits="userSpaceOnUse"><g class="cls-32"/></mask><linearGradient id="linear-gradient" x1="1845.37" y1="2197.46" x2="1846.99" y2="2595.29" gradientTransform="translate(-313.13 216.2) rotate(-5.81)" gradientUnits="userSpaceOnUse"><stop offset="0" stop-color="#fff"/><stop offset="1"/></linearGradient><filter id="luminosity-noclip-2" x="1806.94" y="-10192" width="262.82" height="32766" filterUnits="userSpaceOnUse" color-interpolation-filters="sRGB"><feFlood flood-color="#fff" result="bg"/><feBlend in="SourceGraphic" in2="bg"/></filter><mask id="mask-2" x="1806.94" y="-10192" width="262.82" height="32766" maskUnits="userSpaceOnUse"><g class="cls-31"/></mask><linearGradient id="linear-gradient-2" x1="2010.1" y1="2233.54" x2="2011.72" y2="2633.87" xlink:href="#linear-gradient"/><filter id="luminosity-noclip-3" x="1629.59" y="2156.68" width="263.82" height="510.04" filterUnits="userSpaceOnUse" color-interpolation-filters="sRGB"><feFlood flood-color="#fff" result="bg"/><feBlend in="SourceGraphic" in2="bg"/></filter><mask id="mask-3" x="1225.4" y="1579.6" width="263.82" height="510.04" maskUnits="userSpaceOnUse"><g class="cls-30"><g transform="translate(-404.19 -577.08)"><g class="cls-1"><path class="cls-2" d="M1893.41,2160l-156.78,506.74a266.72,266.72,0,0,1-107-92.26L1753,2175.66A265.77,265.77,0,0,1,1893.41,2160Z"/></g></g></g></mask><linearGradient id="linear-gradient-3" x1="1845.37" y1="2197.46" x2="1846.99" y2="2595.29" gradientTransform="translate(-313.13 216.2) rotate(-5.81)" gradientUnits="userSpaceOnUse"><stop offset="0" stop-color="#fff"/><stop offset="1" stop-color="#fff"/></linearGradient><filter id="luminosity-noclip-4" x="1806.94" y="2180.19" width="262.82" height="512.61" filterUnits="userSpaceOnUse" color-interpolation-filters="sRGB"><feFlood flood-color="#fff" result="bg"/><feBlend in="SourceGraphic" in2="bg"/></filter><mask id="mask-4" x="1402.76" y="1603.11" width="262.82" height="512.61" maskUnits="userSpaceOnUse"><g class="cls-29"><g transform="translate(-404.19 -577.08)"><g class="cls-3"><path class="cls-4" d="M2069.77,2268.7l-126.24,407.89a267.11,267.11,0,0,1-95.31,16.18L1806.94,2680l154.65-499.8A267.08,267.08,0,0,1,2069.77,2268.7Z"/></g></g></g></mask><linearGradient id="linear-gradient-4" x1="2010.1" y1="2233.54" x2="2011.72" y2="2633.87" xlink:href="#linear-gradient-3"/></defs><path class="cls-5" d="M2782.28,1501.29c65.3,71.54,83.45,356.55,35,515.2s-337.08,116.37-499.84,80-91.84-406.54-70.85-505.32C2279.4,1436.92,2685.5,1395.28,2782.28,1501.29Z" transform="translate(-404.19 -577.08)"/><g class="cls-6"><path class="cls-7" d="M2317.47,2096.49c162.76,36.37,451.41,78.62,499.86-80a545,545,0,0,0,15.61-68c-52,27-109-16.65-108.32-61.57,4.08-277.29-76.3-399.28-117.95-443.71-151.24-7.35-338.26,45.4-360,148C2225.62,1690,2154.7,2060.12,2317.47,2096.49Z" transform="translate(-404.19 -577.08)"/></g><path class="cls-7" d="M2579.83,2146.72c-85.06,0-179.75-15.09-265.91-34.35-161.73-36.14-121.56-344.18-83.22-524.58,13.16-61.93,78-111.68,182.61-140.09,131.83-35.81,315-29.7,381,42.61h0c68.85,75.43,89.76,363.22,38.58,530.93C2804.06,2115.66,2701.85,2146.72,2579.83,2146.72Zm-1.47-688.25a606.5,606.5,0,0,0-156.52,20.65c-90.89,24.69-149,66.76-159.3,115.44-22.51,105.92-84.82,454,58.48,486,160.72,35.92,436.9,74.73,480.72-68.86,46.72-153.07,29.06-433.15-31.49-499.48C2738.45,1477.42,2663.74,1458.47,2578.36,1458.47Z" transform="translate(-404.19 -577.08)"/><path class="cls-5" d="M2714.55,1770l78.18-15.17a29.92,29.92,0,0,1,35.58,27.35c4.08,61.79,4.4,188.34-59.62,202.07-77.57,16.64-87.29-71-78.29-187.28A29.89,29.89,0,0,1,2714.55,1770Z" transform="translate(-404.19 -577.08)"/><g class="cls-6"><path class="cls-7" d="M2690.59,1796.85c-9.29,116.21.24,204,77.85,187.46,31.87-6.73,47.88-41.51,55.39-82.33-8.21,10.54-26.32,33.56-39.57,33.92-23.86.66-44.81-19-49.67-86.71C2701.42,1952.18,2691.55,1784.33,2690.59,1796.85Z" transform="translate(-404.19 -577.08)"/></g><path class="cls-7" d="M2750.73,2001.72c-17.19,0-31.85-5.27-43.78-15.74-30.73-27-40.23-83.92-31.74-190.35a45.4,45.4,0,0,1,36.66-40.82h0l78.21-15a45.32,45.32,0,0,1,53.79,41.57c4.76,74.68,1.7,202.3-72.25,218A100.53,100.53,0,0,1,2750.73,2001.72Zm-33.06-216.65a14.52,14.52,0,0,0-11.75,13c-2.69,33.75-10.88,136.44,21.36,164.75,8.92,7.84,21.33,9.94,37.95,6.42,36.91-7.83,54.82-77.32,47.9-185.89a14.19,14.19,0,0,0-5.57-10.48,14.41,14.41,0,0,0-11.67-2.8Z" transform="translate(-404.19 -577.08)"/><path class="cls-7" d="M2734.72,1834.07c1,14.54,2.66,29,4.82,43.31a379.69,379.69,0,0,0,8.59,42.14c3.68,13.51,8.5,27.12,15.32,36.91,3.33,4.87,7.49,7.73,9.58,7.64.5.28,1.06-.23,1.47-.11a15,15,0,0,1,1.68-.56c.77-.51,1.43-.71,2.26-1.17.91-.64,1.8-1.22,2.7-1.75l1.13-.66a16.36,16.36,0,1,1,16.5,28.26,18.61,18.61,0,0,1-2.25,1.09c-2.41.95-4.83,1.85-7.24,2.68a75.58,75.58,0,0,1-8.24,1.68,51.17,51.17,0,0,1-9.17-.18c-3.11-.7-6.32-1.18-9-2.68q-2.12-1-4.14-2.1c-1.2-.82-2.33-1.71-3.47-2.59a34.81,34.81,0,0,1-5.74-5.7,55.06,55.06,0,0,1-7.36-12,106.28,106.28,0,0,1-7.06-23.36,199.72,199.72,0,0,1-3-22.67,390.79,390.79,0,0,1-.68-44.43Q2732.22,1855.82,2734.72,1834.07Z" transform="translate(-404.19 -577.08)"/><path class="cls-5" d="M2674.83,1803.91,2671,1915.26c-13.33,115.43-54.6,201.91-101.76,247.89-67.81,66.07-187,73.51-227.53,114.85-35.54,36.3-35.69,91.13-43.59,147.17-6.76,47.91-26.69,108.47-76.85,154.75-75.85,70-192.19,56.69-244.51-6.91-59.72-72.67,56.73-204.68,73-220.63,0,0-14.85-27.45-28.78-52.28-12.76-22.7-17.35-54.52-14.32-88.5-86.45,11.39-142.15,163.18-209.61,194.85-40.21,18.91-133.92,16.86-214.63-122.9-55.85-96.67-53.5-193.48,15.22-227.62,73.2-36.37,137.86,33.45,137.86,33.45S1700.59,1770,1997,1878.82c0,0,37.93-240.38,37.66-480.86l472.7-97C2622.47,1488.63,2668.94,1661.19,2674.83,1803.91Z" transform="translate(-404.19 -577.08)"/><path class="cls-5" d="M2034.61,1398c.27,240.48-37.66,480.87-37.66,480.87-296.37-108.77-261.47,210.57-261.47,210.57s-64.66-69.84-137.84-33.47c-68.74,34.15-71.1,131-15.26,227.62,80.75,139.77,174.42,141.83,214.66,122.92,96.83-45.51,169.44-338.28,343.34-108.51" transform="translate(-404.19 -577.08)"/><path class="cls-5" d="M2034.61,1398c.27,240.48-37.66,480.87-37.66,480.87-296.37-108.77-261.47,210.57-261.47,210.57s-64.66-69.84-137.84-33.47c-68.74,34.15-71.1,131-15.26,227.62,80.75,139.77,174.42,141.83,214.66,122.92,96.83-45.51,169.44-338.28,343.34-108.51" transform="translate(-404.19 -577.08)"/><path class="cls-5" d="M2034.61,1398c.27,240.48-37.66,480.87-37.66,480.87-296.37-108.77-261.47,210.57-261.47,210.57s-64.66-69.84-137.84-33.47c-68.74,34.15-71.1,131-15.26,227.62,80.75,139.77,174.42,141.83,214.66,122.92,96.83-45.51,169.44-338.28,343.34-108.51" transform="translate(-404.19 -577.08)"/><path class="cls-7" d="M1941.16,2259.91a12.21,12.21,0,0,1-11.54-16.2c44.91-129.92,5.24-235.12-46.87-290.26-31.79-33.64-69.25-49.51-97.76-41.43a12.21,12.21,0,1,1-6.66-23.49c37.86-10.75,83.53,7.27,122.17,48.15,57,60.34,100.67,174.78,52.2,315A12.22,12.22,0,0,1,1941.16,2259.91Z" transform="translate(-404.19 -577.08)"/><path class="cls-7" d="M1757,2136.62l-33.48-36.17c-2.29-2.45-57.47-60.36-118.67-29.95a78.37,78.37,0,0,0-20.59,14.68,16.28,16.28,0,0,1-23-23,110.91,110.91,0,0,1,29.11-20.8c51.7-25.7,98.68-6.39,127.52,12.67.65-49.51,11-136,70.87-182.86,46.32-36.24,112-40.93,195.27-14a2110,2110,0,0,0,22.31-224.71,16.28,16.28,0,1,1,32.52,1.48c-6.4,140.6-25.73,246.8-25.93,247.85l-3.49,19-18.13-6.65c-80.86-29.69-142.26-28.78-182.49,2.69-71,55.59-57.31,189.47-57.16,190.82Z" transform="translate(-404.19 -577.08)"/><path class="cls-7" d="M1755.93,2431.17a138.79,138.79,0,0,1-19.79-1.43,16.28,16.28,0,0,1,4.64-32.22c18,2.58,36,.47,49.36-5.79,25.21-11.85,50.57-45.61,77.41-81.34,40.71-54.2,86.86-115.62,149.21-115.73h.17c44.2,0,88.84,30.57,136.44,93.47a16.28,16.28,0,0,1-26,19.65c-40.46-53.46-77.63-80.57-110.49-80.57h-.1c-46.13.08-85.33,52.26-123.24,102.73-29.34,39.06-57.06,76-89.6,91.25C1790,2427.77,1773.37,2431.17,1755.93,2431.17Z" transform="translate(-404.19 -577.08)"/><path class="cls-8" d="M1755.12,2408.65c-8.6,4.42-18.62,5-28,2.87-43.39-10-96.35-44.32-144.7-128-41.47-71.73-50.83-143.6-24.79-189.82a41.5,41.5,0,0,1,39.69-20.81c32.47,2.94,67.87,21.64,92.09,65.25C1731.51,2214.12,1818,2376.31,1755.12,2408.65Z" transform="translate(-404.19 -577.08)"/><g class="cls-9"><path class="cls-5" d="M1758,2279.71c-17.68-39.8-38.69-78.47-53.91-105.91-24.23-43.63-59.61-62.33-92.1-65.25a41.51,41.51,0,0,0-39.67,20.77c-18.94,33.6-19.17,80.83-1.89,131.65-31.05-63.94-36.11-125.85-12.83-167.23a41.5,41.5,0,0,1,39.71-20.81c32.48,2.92,67.87,21.62,92.09,65.24C1709.15,2173.8,1738.7,2228.43,1758,2279.71Z" transform="translate(-404.19 -577.08)"/></g><g class="cls-6"><path class="cls-7" d="M1755.12,2408.64c-8.61,4.45-18.63,5.06-28,2.9-43-10-95.55-43.81-143.63-126.18,30.51,25.61,60.31,39.43,87.08,45.61,11.34,2.62,23.44,1.89,33.8-3.45,40.36-20.73,29.73-85.78,3.28-155.92C1751.44,2254,1809.87,2380.49,1755.12,2408.64Z" transform="translate(-404.19 -577.08)"/></g><path class="cls-7" d="M1737.48,2429a62.81,62.81,0,0,1-14-1.62c-40.38-9.31-100.08-40.41-155.14-135.69-44.69-77.29-54-154.29-24.88-206a57.53,57.53,0,0,1,55.34-29c25.17,2.28,72.26,14.86,104.86,73.56,49.67,89.53,104.39,199.87,86.45,259-4.64,15.3-14.15,27-27.5,33.88h0A54.86,54.86,0,0,1,1737.48,2429Zm17.64-20.35h0ZM1593.65,2089a25.39,25.39,0,0,0-21.88,12.69c-23,40.91-13.59,107.46,24.7,173.68,49.22,85.16,100.18,112.4,134.27,120.25,6.25,1.44,12.27.92,16.94-1.48h0c5.55-2.85,9.12-7.42,11.23-14.38,10.77-35.49-17.41-114.13-83.77-233.72-25.32-45.58-60.57-55.24-79.33-56.94C1595.09,2089.06,1594.36,2089,1593.65,2089Z" transform="translate(-404.19 -577.08)"/><path class="cls-7" d="M1558.35,2248.53a16.25,16.25,0,0,1-7.46-30.74c10.61-5.31,130.52-47.29,154.45-55.65a16.28,16.28,0,1,1,10.74,30.73c-53.95,18.86-142.57,50.21-150.68,54.06A16.4,16.4,0,0,1,1558.35,2248.53Z" transform="translate(-404.19 -577.08)"/><path class="cls-7" d="M1588.93,2310.48a16.25,16.25,0,0,1-7.44-30.75c10.56-5.28,130-48.1,153.77-56.63a16.28,16.28,0,0,1,11,30.65C1692.38,2273,1604,2305,1596,2308.86A16.28,16.28,0,0,1,1588.93,2310.48Z" transform="translate(-404.19 -577.08)"/><path class="cls-7" d="M1635,2371.33a16.27,16.27,0,0,1-7.36-30.8c10.49-5.25,113-43.1,133.42-50.64a16.28,16.28,0,0,1,11.26,30.55c-46.43,17.11-122.8,45.6-130.12,49.21A16.29,16.29,0,0,1,1635,2371.33Z" transform="translate(-404.19 -577.08)"/><path class="cls-7" d="M1749,2080.33a322.57,322.57,0,0,1,14.88,30q6.63,15,12,30.48c3.62,10.29,6.87,20.68,9.61,31.21s5,21.16,7,31.82a8.15,8.15,0,0,1-15.77,4l-.08-.24c-3.17-9.85-6.47-19.61-10.46-29.14-3.84-9.56-8.16-18.92-12.78-28.1s-9.58-18.19-14.87-26.94a297.52,297.52,0,0,0-16.62-25l-.16-.22a16.32,16.32,0,1,1,26-19.67A15.47,15.47,0,0,1,1749,2080.33Z" transform="translate(-404.19 -577.08)"/><path class="cls-5" d="M1790.13,2022.09" transform="translate(-404.19 -577.08)"/><path class="cls-10" d="M1790.13,2022.09" transform="translate(-404.19 -577.08)"/><path class="cls-11" d="M3093.4,2563.89s230-177.82,573.26,292.35a43.06,43.06,0,0,1-16.91,64.67c-133.8,60.61-516.35,207.41-641.66-29.86Z" transform="translate(-404.19 -577.08)"/><path class="cls-12" d="M3080.11,2610.93s163.24-126.18,406.65,208.55a28.66,28.66,0,0,1-11.24,42.94c-92.67,42.25-366.48,148.81-455.73-20.18Z" transform="translate(-404.19 -577.08)"/><path class="cls-13" d="M3058,2645.47s110.15-85.15,274.39,140.72a19.34,19.34,0,0,1-7.59,29c-62.52,28.51-247.28,100.41-307.5-13.61Z" transform="translate(-404.19 -577.08)"/><path class="cls-7" d="M3258.87,3038.81C3131.31,3038.81,3042,2992,2993,2899a17.09,17.09,0,0,1-1.43-12.31l85.31-327.16a17.11,17.11,0,0,1,6.1-9.22c2.58-2,64.36-48.66,170.63-33.57,138,19.61,281.69,130.43,426.91,329.37a60.16,60.16,0,0,1-23.67,90.35c-66.81,30.26-198.4,83.26-329.13,98.19A608.85,608.85,0,0,1,3258.87,3038.81Zm-232.51-150c51.23,90.93,151.25,128.55,297.44,111.87,126.08-14.39,253.91-65.92,318.89-95.36a25.72,25.72,0,0,0,14.33-17,26,26,0,0,0-4.18-22c-173.17-237.21-314.55-302.48-402.66-315.45-77.83-11.46-127.15,14.3-141.83,23.53Z" transform="translate(-404.19 -577.08)"/><polygon class="cls-11" points="1943.48 1969.66 2544.97 1582.2 2769.6 1638.82 2446.03 2096.32 1943.48 1969.66"/><polygon class="cls-11" points="1943.48 1969.66 2289.48 2595.92 2514.11 2652.54 2446.03 2096.32 1943.48 1969.66"/><g class="cls-14"><path class="cls-7" d="M2347.66,2546.76l502.54,126.65,68.12,556.21-80.08-20.18-19.11-156.27a97.28,97.28,0,0,0-64.43-79.94,880.32,880.32,0,0,1-243.88-131.16Z" transform="translate(-404.19 -577.08)"/></g><g class="cls-14"><path class="cls-7" d="M2347.66,2546.74l502.54,126.65,323.6-457.48-80.07-20.18-90.89,128.54a97.29,97.29,0,0,1-94.62,39.86,880.64,880.64,0,0,0-276.92-.1Z" transform="translate(-404.19 -577.08)"/></g><g class="cls-15"><polygon class="cls-5" points="2544.97 1582.19 2588.71 1593.21 2001.97 1984.42 1943.47 1969.67 2544.97 1582.19"/></g><g class="cls-15"><polygon class="cls-5" points="1943.47 1969.67 2001.97 1984.42 2333.21 2606.94 2289.48 2595.92 1943.47 1969.67"/></g><path class="cls-7" d="M2857.06,2691.91l-549.73-138.54,639-411.6,254.5,64.14Zm-469-151.79,455.36,114.77,303.42-429L2952,2176.8Z" transform="translate(-404.19 -577.08)"/><path class="cls-16" d="M2742.64,2060.19c-9.83,39,133.41,93.81,191.85,107.13l331.76,75.62a38.57,38.57,0,0,0,46-28.18h0l5.23-20.72a38.58,38.58,0,0,0-27.13-46.61l-328-90.65C2904.58,2040.81,2752.47,2021.19,2742.64,2060.19Z" transform="translate(-404.19 -577.08)"/><g class="cls-15"><path class="cls-5" d="M2962.35,2056.76l35,9.68c-68.74-13.13-178-21.87-186.25,11s92.08,76.93,158.83,97.94l-35.44-8.07c-58.43-13.32-201.66-68.13-191.84-107.12S2904.58,2040.8,2962.35,2056.76Z" transform="translate(-404.19 -577.08)"/></g><path class="cls-7" d="M2937.34,3251.21l-254.5-64.15L2315.29,2521.8,2865,2660.35ZM2704.5,3159,2899.26,3208l-63.85-521.58-455.36-114.77Z" transform="translate(-404.19 -577.08)"/><path class="cls-16" d="M2464.85,3162.39c9.83-39,161.94-19.38,219.71-3.41l328,90.65a38.58,38.58,0,0,1,27.13,46.61h0l-5.23,20.72a38.57,38.57,0,0,1-46,28.18l-331.76-75.62C2598.26,3256.2,2455,3201.38,2464.85,3162.39Z" transform="translate(-404.19 -577.08)"/><g class="cls-14"><path class="cls-7" d="M2798.65,3190.5l213.88,59.15a38.54,38.54,0,0,1,27.14,46.58l-5.23,20.73a38.6,38.6,0,0,1-46,28.19l-216.54-49.37c67.62,10.43,154.93,14.15,162.3-15.08S2863.09,3213.39,2798.65,3190.5Z" transform="translate(-404.19 -577.08)"/></g><g class="cls-15"><path class="cls-5" d="M2684.56,3159l35,9.68c-68.74-13.13-178-21.87-186.25,11s92.08,76.93,158.83,97.94l-35.44-8.07c-58.43-13.32-201.66-68.13-191.84-107.12S2626.79,3143,2684.56,3159Z" transform="translate(-404.19 -577.08)"/></g><path class="cls-7" d="M2996.85,3362.36a53.75,53.75,0,0,1-12-1.35l-331.76-75.62c-47.29-10.78-171.65-54.48-198.74-98.68-7.27-11.85-6.88-21.93-5.27-28.3s6-15.44,18.06-22.43c44.8-26.07,175-5.61,221.77,7.31l328,90.65a55.18,55.18,0,0,1,38.58,66.27l-5.22,20.72A55.26,55.26,0,0,1,2996.85,3362.36Zm-516.19-196c.24,1.3,4.66,17.61,65.13,46.24,41.78,19.78,88.65,35.14,114.53,41l331.75,75.62a22.44,22.44,0,0,0,26.58-16.29l5.22-20.72a22.42,22.42,0,0,0-15.68-26.94l-328-90.65c-25.58-7.07-74.14-15.77-120.31-18.15C2493.11,3153.05,2481.49,3165.34,2480.66,3166.37Z" transform="translate(-404.19 -577.08)"/><g class="cls-14"><path class="cls-7" d="M3076.44,2088.3l213.88,59.15a38.54,38.54,0,0,1,27.14,46.58l-5.23,20.73a38.6,38.6,0,0,1-46,28.19l-216.54-49.37c67.62,10.43,154.93,14.15,162.3-15.08S3140.88,2111.19,3076.44,2088.3Z" transform="translate(-404.19 -577.08)"/></g><path class="cls-7" d="M3274.64,2260.16a53.75,53.75,0,0,1-12-1.35l-331.76-75.62c-47.29-10.78-171.65-54.48-198.74-98.68-7.26-11.85-6.88-21.93-5.27-28.3s6-15.44,18.06-22.43c44.79-26.07,175-5.61,221.77,7.31l328,90.65a55.18,55.18,0,0,1,38.58,66.27l-5.22,20.72A55.26,55.26,0,0,1,3274.64,2260.16Zm-516.19-196c.24,1.3,4.66,17.61,65.13,46.24,41.78,19.78,88.65,35.14,114.53,41l331.76,75.62a22.43,22.43,0,0,0,26.57-16.29l5.22-20.72a22.42,22.42,0,0,0-15.68-26.94l-328-90.65c-25.59-7.07-74.14-15.77-120.31-18.15C2770.91,2050.85,2759.28,2063.14,2758.45,2064.17Z" transform="translate(-404.19 -577.08)"/><path class="cls-5" d="M1859.44,1916.12c471.09,118.74,829.71,351.81,968.62,451.82a114.64,114.64,0,0,1,44.25,121.1l-90,357.17a114.68,114.68,0,0,1-96.37,85.67c-169.72,22.22-596,57.49-1067.06-61.25C770,2656.69,393.72,2173.21,421.9,2061.39S1010.55,1702.18,1859.44,1916.12Z" transform="translate(-404.19 -577.08)"/><path class="cls-7" d="M2319.63,2970.71c-197.49,0-444.6-18.73-704.74-84.29C1149,2769,850,2579,681.15,2440.29c-202.06-166-291.31-318.29-275-382.88s167-156.36,423.65-206.79c214.38-42.13,567.73-67.71,1033.64,49.72,476.33,120.05,839.94,357.76,974.16,454.39A130.28,130.28,0,0,1,2888.1,2493l-90,357.17A130.27,130.27,0,0,1,2688,2948C2613.62,2957.76,2483.75,2970.7,2319.63,2970.71ZM1212.25,1847.84c-152.83,0-279,15.63-376.21,34.73C583.2,1932.26,448.86,2021,437.69,2065.37s65,186.18,264.13,349.77c166.23,136.59,461,323.76,921,439.71,470.89,118.68,898.84,82.12,1061,60.89a97.9,97.9,0,0,0,82.69-73.5l90-357.17a97.9,97.9,0,0,0-38-103.92c-132.7-95.54-492.2-330.56-963.09-449.24h0C1607.17,1869.33,1391.42,1847.84,1212.25,1847.84Z" transform="translate(-404.19 -577.08)"/><path class="cls-17" d="M2876.8,2471.26l48.62,12.26a70.19,70.19,0,0,1,50.9,85.21l-64.67,256.62a70.18,70.18,0,0,1-85.21,50.9L2777.81,2864Z" transform="translate(-404.19 -577.08)"/><g class="cls-14"><path class="cls-7" d="M2916.78,2727.79a70.17,70.17,0,0,1-85.21,50.9l-30.33-7.64L2777.82,2864l48.62,12.25a70.16,70.16,0,0,0,85.2-50.9l64.68-256.62a69.78,69.78,0,0,0-6.62-50.92Z" transform="translate(-404.19 -577.08)"/></g><g class="cls-9"><path class="cls-5" d="M2876.79,2471.26l48.63,12.26a70.17,70.17,0,0,1,50.89,85.19l-10.7,42.44a70.16,70.16,0,0,0-50.88-85.18l-48.64-12.26Z" transform="translate(-404.19 -577.08)"/></g><path class="cls-7" d="M3055.3,2550a35.57,35.57,0,0,1,25.81,43.21l-65.57,260.17a35.59,35.59,0,0,1-59.78,16.36l-44.11-44.43,64.67-256.62,59.91-18.22A35.31,35.31,0,0,1,3055.3,2550Z" transform="translate(-404.19 -577.08)"/><g class="cls-9"><path class="cls-5" d="M3055.29,2550a35.58,35.58,0,0,1,25.84,43.2l-9.35,37.11a35.63,35.63,0,0,0-44.9-42.75L2967,2605.82l9.35-37.11,59.91-18.19A35.41,35.41,0,0,1,3055.29,2550Z" transform="translate(-404.19 -577.08)"/></g><g class="cls-9"><path class="cls-5" d="M2971.25,2883.51a35.57,35.57,0,0,0,43.22-25.79l9.36-37.11A35.65,35.65,0,0,1,2964,2837l-44.12-44.44-9.35,37.11,44.13,44.4A35.28,35.28,0,0,0,2971.25,2883.51Z" transform="translate(-404.19 -577.08)"/></g><path class="cls-11" d="M1206.89,1831.8c-12.41,127.06-35.88,262.92-71,402.38-36.39,144.39-82,279.46-133.41,400.4C587.1,2409.46,401.8,2141.07,421.88,2061.4,442,1981.58,733.2,1832.73,1206.89,1831.8Z" transform="translate(-404.19 -577.08)"/><g class="cls-14"><path class="cls-7" d="M1478.61,2790.49l-1.55-.39c5.8,1.77,11.7,3.49,17.55,5.24,3.8,1.13,7.58,2.28,11.4,3.4q12.35,3.63,24.88,7.17c4.11,1.17,8.19,2.36,12.33,3.52,9.09,2.54,18.27,5,27.47,7.51,3.32.9,6.59,1.81,9.92,2.7q19,5.06,38.27,9.92c471.1,118.74,897.33,83.48,1067,61.25a115.07,115.07,0,0,0,96.39-85.67l90-357.17c.63-2.47,1.12-4.94,1.57-7.42.29,1.64.6,3.28.83,4.93-.35-2.53-.76-5.06-1.27-7.56,0,0,0-.05,0-.08-.51-2.45-1.12-4.87-1.79-7.28-.2-.74-.43-1.48-.65-2.22q-.78-2.64-1.7-5.25c-.26-.74-.51-1.48-.79-2.21-.87-2.33-1.79-4.64-2.81-6.91l-.24-.48c-1-2.15-2-4.27-3.15-6.36-.38-.71-.78-1.41-1.17-2.11-.89-1.59-1.82-3.15-2.79-4.7-.42-.68-.83-1.35-1.26-2-1.38-2.1-2.81-4.18-4.32-6.2h0a114.8,114.8,0,0,0-24.71-24.17c-138.89-100-497.49-333.1-968.59-451.83q-73.23-18.45-143.58-32.46c407.33,98.95,1012.4,378.09,921.42,739.07-.15.61-.3,1.21-.46,1.81-22.63,87.63-101.16,149.15-191.59,152.88a3077.64,3077.64,0,0,1-316.59-3.33,380.34,380.34,0,0,0,145.13-214.88c51.49-204.33-72.84-412.46-277.16-463.95s-412.47,72.84-464,277.17c-28.68,113.78-2.77,228.72,61.06,317.15-645.23-168.5-1011.65-492.43-1130.25-680.72-21.07,17-34.52,33.25-39.93,47.54C458.61,2202.47,795.93,2582.3,1478.61,2790.49Z" transform="translate(-404.19 -577.08)"/></g><g class="cls-15"><path class="cls-5" d="M966.88,1840.59c-132.32,15.58-243.36,42.76-330,74-129.93,46.78-205.1,102.55-215,141.71-7,27.63,10.8,78,54.26,141.31-24.58-44-34-78.88-28.58-100.23,10.07-40,88.18-97.25,223.12-144.59,34.73,16.9,91.51,19.72,151.77,4.35,55.88-14.25,101.64-40.79,125.86-69.68,77-11,162-18,254.13-19.4,1.59-13.87,3.12-27.69,4.45-41.36A2088.93,2088.93,0,0,0,966.88,1840.59Z" transform="translate(-404.19 -577.08)"/></g><path class="cls-7" d="M2843.75,2894.69a87,87,0,0,1-21.29-2.65l-64.41-16.24L2865,2451.5l64.41,16.23a86.56,86.56,0,0,1,62.71,105l-64.68,256.62a86.55,86.55,0,0,1-83.68,65.37Zm-46.17-42.5,32.84,8.28a53.9,53.9,0,0,0,65.44-39.1l64.68-256.62a54,54,0,0,0-39.1-65.45L2888.6,2491Z" transform="translate(-404.19 -577.08)"/><path class="cls-7" d="M2981,2896.6a51.91,51.91,0,0,1-36.83-15.37l-50.58-50.94,69.18-274.46,68.7-20.9a51.79,51.79,0,0,1,27.78-.68h0a51.94,51.94,0,0,1,37.62,63l-65.57,260.17A52,52,0,0,1,2981,2896.6Zm-51.34-76.2,37.63,37.91a19.31,19.31,0,0,0,32.45-8.87l65.57-260.17a19.31,19.31,0,0,0-24.34-23.2l-51.13,15.55Z" transform="translate(-404.19 -577.08)"/><path class="cls-11" d="M1941.5,2069.12a365.26,365.26,0,0,1,182.75,110c79,87.84,114.27,212.12,83.23,335.28a366.71,366.71,0,0,1-445.23,266c-196.42-49.51-315.52-248.82-266-445.24S1745.08,2019.62,1941.5,2069.12Z" transform="translate(-404.19 -577.08)"/><g class="cls-15"><path class="cls-5" d="M2218.4,2405.25a366.73,366.73,0,0,0-272.36-296c-196.41-49.54-395.77,69.54-445.27,265.95a366.78,366.78,0,0,0-10.89,104.19,364.87,364.87,0,0,1,6.37-149c49.49-196.4,248.82-315.44,445.26-265.95a366.71,366.71,0,0,1,276.89,340.79Z" transform="translate(-404.19 -577.08)"/></g><g class="cls-6"><path class="cls-7" d="M2207.49,2514.35a366.77,366.77,0,0,1-445.26,266c-172.52-43.47-285.39-202.54-276.73-373.74,32.45,125.68,130.81,230.2,265.61,264.16a367,367,0,0,0,456-337.43A365.14,365.14,0,0,1,2207.49,2514.35Z" transform="translate(-404.19 -577.08)"/></g><path class="cls-7" d="M1851.84,2806.92a382.2,382.2,0,0,1-370.53-475.58c51.5-204.33,259.62-328.67,464-277.17h0c204.32,51.5,328.66,259.63,277.16,463.95C2178.81,2691.22,2022.75,2806.92,1851.84,2806.92Zm-.59-733.67a351.73,351.73,0,0,0-340.06,265.62c-47.35,187.85,67,379.2,254.82,426.55s379.2-67,426.55-254.82-67-379.21-254.82-426.56A353.87,353.87,0,0,0,1851.25,2073.25Z" transform="translate(-404.19 -577.08)"/><path class="cls-16" d="M2111.73,2490.22c-22.52,89.47-87.6,157-168.2,186.37A268,268,0,1,1,1893.41,2160c8,1.24,16,2.85,24,4.88a268,268,0,0,1,194.35,325.36Z" transform="translate(-404.19 -577.08)"/><path class="cls-16" d="M2119.59,2438a268.24,268.24,0,0,1-7.86,52.18c-22.52,89.47-87.6,157-168.2,186.37A268,268,0,0,1,1592,2359.24c.35-1.38.73-2.77,1.11-4.17a268,268,0,0,0,359.38,265.2C2031.86,2591.28,2096.17,2525.44,2119.59,2438Z" transform="translate(-404.19 -577.08)"/><g class="cls-18"><path class="cls-19" d="M1893.41,2160l-156.78,506.74a266.72,266.72,0,0,1-107-92.26L1753,2175.66A265.77,265.77,0,0,1,1893.41,2160Z" transform="translate(-404.19 -577.08)"/></g><g class="cls-20"><path class="cls-21" d="M2069.77,2268.7l-126.24,407.89a267.11,267.11,0,0,1-95.31,16.18L1806.94,2680l154.65-499.8A267.08,267.08,0,0,1,2069.77,2268.7Z" transform="translate(-404.19 -577.08)"/></g><path class="cls-7" d="M1851.85,2708.17a282.83,282.83,0,0,1-69.24-8.63c-151.53-38.19-243.74-192.54-205.54-344.07s192.52-243.74,344.06-205.55,243.74,192.54,205.55,344.07C2094.33,2622.36,1978.59,2708.17,1851.85,2708.17Zm.05-536.06c-113,0-216.12,76.47-245,190.89-34,135.06,48.15,272.62,183.2,306.66s272.63-48.14,306.67-183.2-48.15-272.63-183.21-306.66A252.24,252.24,0,0,0,1851.9,2172.11Z" transform="translate(-404.19 -577.08)"/><path class="cls-11" d="M2603.75,2611.29c-9.83,39,133.41,93.81,191.85,107.13L3127.35,2794a38.58,38.58,0,0,0,46-28.18h0l5.22-20.72a38.57,38.57,0,0,0-27.13-46.61l-328-90.65C2765.68,2591.91,2613.58,2572.29,2603.75,2611.29Z" transform="translate(-404.19 -577.08)"/><g class="cls-15"><path class="cls-5" d="M2823.45,2607.86l42.13,11.64c-68.89-12.82-175.31-20.89-183.49,11.55s89.45,75.75,156.19,97.11l-42.69-9.74c-58.43-13.32-201.67-68.13-191.84-107.12S2765.69,2591.89,2823.45,2607.86Z" transform="translate(-404.19 -577.08)"/></g><path class="cls-7" d="M1010.42,2657.42l-15.73-8.52c-235.43-127.61-378.93-257.78-457.85-344.5-93.22-102.44-143.32-197.07-130.74-247s101.81-109.7,232.8-155.76c110.91-39,299.49-85.61,568-86.14l18,0-1.75,17.9c-12.83,131.4-36.87,267.59-71.44,404.78-35.79,142-81,277.52-134.22,402.79Zm178.45-809.24c-483.31,4.69-736.4,158.46-751.2,217.2-14.76,58.54,134.77,313.31,556.77,546.27,49.6-119.09,91.83-247.31,125.64-381.45C1152.69,2100.83,1175.81,1972.4,1188.87,1848.18Z" transform="translate(-404.19 -577.08)"/><g class="cls-14"><path class="cls-7" d="M2937.68,2638.87,3151.55,2698a38.53,38.53,0,0,1,27.14,46.58l-5.22,20.73a38.6,38.6,0,0,1-46,28.19L2911,2744.15c67.62,10.43,154.93,14.15,162.3-15.08S3002.11,2661.76,2937.68,2638.87Z" transform="translate(-404.19 -577.08)"/></g><path class="cls-7" d="M3135.75,2811.26a54.36,54.36,0,0,1-12-1.35L2792,2734.29c-47.3-10.78-171.66-54.48-198.75-98.68-7.26-11.85-6.87-21.93-5.27-28.3s6.05-15.44,18.06-22.43c44.8-26.08,175-5.62,221.77,7.31l328,90.65a55.17,55.17,0,0,1,38.57,66.28l-5.22,20.71A55.26,55.26,0,0,1,3135.75,2811.26Zm-516.19-196c.23,1.3,4.65,17.62,65.12,46.24,41.78,19.78,88.66,35.14,114.54,41L3131,2778.17a22.46,22.46,0,0,0,26.58-16.29l5.22-20.72a22.43,22.43,0,0,0-15.69-26.94l-328-90.65c-25.58-7.07-74.14-15.77-120.3-18.15C2632,2602,2620.38,2614.24,2619.56,2615.27Z" transform="translate(-404.19 -577.08)"/><path class="cls-10" d="M1956.94,2220.1" transform="translate(-404.19 -577.08)"/><path class="cls-5" d="M2069.8,1408.68s-189.54,233.64-270.94,20.12l-167.25,101.71s41,240.19,240.77,245.77c120.13,3.35,164.14-103.26,164.14-103.26Z" transform="translate(-404.19 -577.08)"/><g class="cls-22"><path class="cls-7" d="M1872.38,1776.28c120.12,3.36,164.13-103.27,164.13-103.27h0c1.66-15-16.72-23.69-27.11-12.72-25.82,27.25-67.68,55.18-130.08,53.43-141.15-3.93-234.49-134.21-103.11-219.11l-144.59,35.89S1672.58,1770.71,1872.38,1776.28Z" transform="translate(-404.19 -577.08)"/></g><path class="cls-7" d="M2074,1412.1c-11.4,29.85-32.84,51.91-56.19,71.76a255.73,255.73,0,0,1-38.41,26.17,227.12,227.12,0,0,1-43.91,19.07c-15.6,4.79-32.81,7.31-50.28,5.09a97.85,97.85,0,0,1-48-20.09,71.1,71.1,0,0,1-9.66-8.34,77,77,0,0,1-8.66-9.08l-7.82-9.6-6.63-10.14-3.28-5.08-2.77-5.25-5.52-10.53c-3.33-7.1-6.18-14.32-9.27-21.49l23.67,8.11-167.25,101.72,7.59-16.65c.92,5,2.28,10.91,3.66,16.39s3,11.16,4.64,16.71q5,16.64,11.43,32.82a361.41,361.41,0,0,0,31.2,61.59c12.48,19.14,26.65,37.15,43.38,52.16s35.27,27.7,55.69,36.42a201.54,201.54,0,0,0,64.72,15.45c5.61.37,11.24.9,16.7.5l8.26-.23a48.77,48.77,0,0,0,8.21-.56c5.39-.86,10.84-1.44,16.18-2.45l15.74-4.2c5-2,10.12-3.88,15.12-5.95,4.76-2.6,9.71-4.83,14.37-7.63a131.34,131.34,0,0,0,25.32-20.52c15.84-15.22,28.92-32.09,49.22-47.32l.58-.44a5.91,5.91,0,0,1,9.45,4.58c.37,14.42-4.14,26.94-10.6,38.35a118.29,118.29,0,0,1-25,30.21c-20.14,16.93-42.92,31.38-68.22,39.64-6.36,1.82-12.78,3.44-19.18,5.13-6.47,1.25-13,2-19.53,3a65.82,65.82,0,0,1-9.8.69l-9.8.27c-6.59.41-13-.15-19.39-.58a234.42,234.42,0,0,1-75.2-18c-23.93-10.23-45.71-25-64.75-42.27s-35-37.46-48.83-58.64a393.54,393.54,0,0,1-34.06-67.17q-6.9-17.45-12.33-35.42c-1.81-6-3.51-12-5-18.12s-2.93-12-4.19-18.88l-2-10.82,9.57-5.83,167.26-101.71,15.89-9.67,7.77,17.78c2.76,6.3,5.28,12.77,8.18,19l4.72,9,2.35,4.5,2.71,4.15,5.4,8.32,6.12,7.45a49.73,49.73,0,0,0,6.51,6.83,44.78,44.78,0,0,0,7,6,64.9,64.9,0,0,0,32.25,13.65c11.75,1.51,24.33-.07,36.74-4,25-7.8,47.89-24.41,70-41.34l16.62-13c5.47-4.48,11-9,16.61-13.38,11.31-8.77,23.09-17.39,36.34-24.89l.29-.17a5.7,5.7,0,0,1,8.14,7Z" transform="translate(-404.19 -577.08)"/><path class="cls-5" d="M1831.67,1416.86c-6.18,123.93-127.85,135.47-162.28,133.67-71.81-3.76-107.58-64-107.58-64l41.55-83.64,17.15-44.25,27.74-14.39c15.15-46.49,55.36-103.55,86.81-92C1735.06,1252.21,1837,1310,1831.67,1416.86Z" transform="translate(-404.19 -577.08)"/><g class="cls-22"><path class="cls-7" d="M1544.39,1450.18c7,36.94,61.67,61.31,163.53,29.5,35.87-11.2,61.21-42.56,54.24-79.5a68.06,68.06,0,0,0-79.5-54.24C1645.73,1352.91,1537.41,1413.25,1544.39,1450.18Z" transform="translate(-404.19 -577.08)"/></g><path class="cls-5" d="M1525.49,1330c32.53,22.28,60.28,38,60.28,38l91.57,64,27.9-136.24s-4.51-25.58-12.88-59c-16.51-66.15-48-163-88.84-152.6-73.47,18.65,12.69,205.15,12.69,205.15s-148.55-135.82-187.6-81.9C1405.76,1239,1472.07,1293.34,1525.49,1330Z" transform="translate(-404.19 -577.08)"/><g class="cls-22"><path class="cls-7" d="M1525.49,1330c32.53,22.28,60.28,38,60.28,38l91.57,64,27.9-136.24s-4.51-25.58-12.88-59c-16.95,19.51-48.72,55.12-58.51,74.61C1617,1344.93,1554.4,1318.51,1525.49,1330Z" transform="translate(-404.19 -577.08)"/></g><path class="cls-7" d="M1677.35,1448.28a16.23,16.23,0,0,1-9.34-2.94l-90.94-63.61c-18.84-10.71-155.27-90.1-168.25-149.69-2.74-12.6-.46-24.41,6.59-34.16,8-11,19.75-17.61,34-19.07,37-3.76,89.89,29.06,128.56,58-15.31-45.33-29.42-105.25-12.83-140.06,7-14.62,18.84-24.44,34.33-28.37,11.49-2.92,23.31-.76,34.16,6.25,53.7,34.68,84.29,199.58,87.6,218.26a16.3,16.3,0,0,1-.08,6.11l-27.9,136.27a16.25,16.25,0,0,1-15.94,13ZM1456.07,1211a32.49,32.49,0,0,0-3.32.17c-6.49.66-9.27,3.44-11,5.78-1.11,1.53-2.11,3.7-1.15,8.13,7.59,34.85,98,97.42,153.16,128.68.45.25.88.53,1.31.82l71.27,49.85,22.29-108.92C1676.72,1230,1647.06,1122,1616,1102c-4.14-2.67-6.72-2.5-8.49-2-6.13,1.56-10.13,4.9-13,10.82-15.86,33.27,13.93,123,36.43,171.75a16.28,16.28,0,0,1-25.76,18.84C1566.22,1265.69,1492.65,1211,1456.07,1211Z" transform="translate(-404.19 -577.08)"/><path class="cls-5" d="M1545.18,1475.49c23.8,26.16,103.72,25.39,128.21-2.28,20.83-23.56-8.11-43.1-16.21-47.92-1.26-.78-2-1.15-2-1.15s28-14.72,28.45-40.71a34.76,34.76,0,0,0-.29-5.22c-3.63-29.2-85.4-39.57-119.34-27.33-25.36,9.16-33.33,21.7-33.64,33.56-.34,12.63,8,24.5,13.27,30.7,2.42,2.82,4.16,4.45,4.16,4.45S1526.11,1454.54,1545.18,1475.49Z" transform="translate(-404.19 -577.08)"/><g class="cls-22"><path class="cls-7" d="M1543.6,1415.14c22.67,6.68,67.5,16.86,113.58,10.15-1.26-.78-2-1.15-2-1.15s28-14.72,28.45-40.71c-26.28,11.17-99.84,36.9-153.27,1C1530,1397.07,1538.34,1408.94,1543.6,1415.14Z" transform="translate(-404.19 -577.08)"/></g><g class="cls-22"><path class="cls-7" d="M1545.18,1475.49c23.8,26.16,103.72,25.39,128.21-2.28,10.24-11.58,8.45-22.17,3-30.54a37.59,37.59,0,0,1-3.87,5.21c-24.46,27.66-104.37,28.43-128.16,2.3a28.2,28.2,0,0,1-5.49-8.74C1536.26,1452.45,1536.15,1465.53,1545.18,1475.49Z" transform="translate(-404.19 -577.08)"/></g><path class="cls-7" d="M1606.76,1510c-32,0-59.21-9-73-24.08-17.47-19.18-12.59-45.85-4.57-64-7.64-9.87-17.28-26.66-13.46-45.22,3.66-17.77,18.12-31.32,43-40.28h0c28.65-10.34,88.18-7.51,119.13,11.5,15.4,9.46,19.77,20.69,20.73,28.45,2.62,21.24-7.67,37.19-18,47.51,6.65,6.45,13,15.08,14.94,25.58,1.54,8.27,1,20.88-10.66,34-14.49,16.37-43.25,26.29-76.94,26.53Zm-37.57-144.58c-13.65,4.92-21.91,11.12-23.24,17.47-1.82,8.65,7.56,21,12.39,25.56a15.46,15.46,0,0,1,2.52,19.31c-.12.21-14.91,25.76-4.29,37.42,7.78,8.54,28.11,14.28,51.19,14,24-.17,45.69-6.65,54.08-16.14,4.05-4.57,3.61-7,3.45-7.9-1.13-6.19-11-14-17.27-17.31a15.42,15.42,0,0,1,0-27.29c.14-.08,22.26-12.26,20-30.38-.08-.64-1.36-3-6.27-6-21.86-13.42-71.47-16.37-92.55-8.77Z" transform="translate(-404.19 -577.08)"/><path class="cls-7" d="M1611,1439.67c-37.25,0-65.08-9.84-66.68-10.42a10.26,10.26,0,0,1,7-19.31c.89.31,49.51,17.22,101.4,4.23a10.27,10.27,0,0,1,5,19.93A192.7,192.7,0,0,1,1611,1439.67Z" transform="translate(-404.19 -577.08)"/><path class="cls-5" d="M1735.05,1252.22c-41.74-15.29-98.86,90.15-92.48,131.42,4.87,31.51,46.88,50.62,83.66,2.31C1763.48,1337,1800.61,1276.23,1735.05,1252.22Z" transform="translate(-404.19 -577.08)"/><path class="cls-5" d="M1561.81,1486.54s35.78,60.23,107.57,64c34.44,1.8,156.11-9.73,162.29-133.68,5.33-106.81-96.62-164.63-96.62-164.63-41.74-15.29-98.86,90.15-92.48,131.42,4.87,31.51,54.75,40.47,83.33-22,0,0-11.09,53.92,39.2,79.79l-92.06,79-81-.49Z" transform="translate(-404.19 -577.08)"/><path class="cls-5" d="M1740.16,1421.32l1.84-1.57c-1.78-.92-3.42-1.84-5-2.83C1738,1418.38,1739,1419.86,1740.16,1421.32Z" transform="translate(-404.19 -577.08)"/><g class="cls-22"><path class="cls-7" d="M1722.52,1352.68c1.68-21.26-46.7,41.21-79.43,33.68,6.25,25.15,42.52,33.6,70.18-3.16C1712.19,1366.54,1722.52,1352.68,1722.52,1352.68Z" transform="translate(-404.19 -577.08)"/></g><g class="cls-22"><path class="cls-7" d="M1605.69,1520,1592,1520c17.83,14.58,43.63,28.81,77.35,30.58,34.45,1.8,156.12-9.76,162.29-133.69,3.63-72.68-42.44-122.71-72.25-147.22,25.75,27.82,51.93,70.09,49.16,125.53-6.17,123.94-127.84,135.49-162.29,133.69A128.21,128.21,0,0,1,1605.69,1520Z" transform="translate(-404.19 -577.08)"/></g><path class="cls-5" d="M1561.84,1486.59a110,110,0,0,0,8.5,11.7l2.09,0Z" transform="translate(-404.19 -577.08)"/><path class="cls-5" d="M1568.94,1498.27c1.32,1.08,2.68,2.18,4.1,3.24-.94-1.11-1.85-2.2-2.7-3.22Z" transform="translate(-404.19 -577.08)"/><path class="cls-7" d="M1794.3,1503.34a157.38,157.38,0,0,0,20.86-66.25q.79-8.46.83-17c.19-5.73-.6-11.24-.77-16.81a139.87,139.87,0,0,0-6.21-32.52c-.38-1.33-.66-2.68-1.11-4l-1.53-3.87-3-7.73c-2.09-5.12-5-9.93-7.29-15-3-4.76-5.66-9.67-8.88-14.29-3.41-4.5-6.36-9.31-10.15-13.59a218.76,218.76,0,0,0-23.56-24.91c-4.26-3.88-8.69-7.55-13.21-11.09-2.3-1.67-4.56-3.47-6.88-5s-4.82-3.31-6.62-4.42l2.51,1.16c-1.77-.65-3.76-.81-7.06.16a36.37,36.37,0,0,0-11,6c-7.67,6-15.06,14.29-21.42,23.36-12.74,18.21-22.72,39.76-27.8,60.74a88.94,88.94,0,0,0-2.29,15,37.23,37.23,0,0,0,.1,6.25l.14,1.31.32.93c.26.57.16,1.33.54,1.79a9.78,9.78,0,0,0,4.28,4.94,13.6,13.6,0,0,0,7.66,1.87,6.82,6.82,0,0,0,2.42-.22,13.19,13.19,0,0,0,2.54-.45,31.07,31.07,0,0,0,5.35-2.07l2.78-1.3,2.72-1.86a33.53,33.53,0,0,0,5.37-4.3c7-6.45,13.2-15.14,18.65-24.64l1.77-3.1a14.33,14.33,0,0,1,25.85,12.13,33.29,33.29,0,0,0-.93,4.15c-.29,1.6-.5,3.25-.65,4.92a77.43,77.43,0,0,0-.46,10.12,71.76,71.76,0,0,0,3.22,20.06,60.46,60.46,0,0,0,9.38,18.73,76.05,76.05,0,0,0,7.09,8.54c2.57,2.78,5.61,5.12,8.47,7.91l.27.27a2.73,2.73,0,0,1-2.75,4.56c-7.87-2.55-16-5.89-22.88-11.4a66.11,66.11,0,0,1-10-9A78.92,78.92,0,0,1,1713,1387a105.71,105.71,0,0,1-1.81-13.66c-.13-2.3-.18-4.62-.12-7a61.8,61.8,0,0,1,.55-7.67l27.63,9c-5.12,12.47-11.68,25-22,35.87a64.87,64.87,0,0,1-8.39,7.75l-4.64,3.59c-1.69,1.08-3.48,2.08-5.24,3.1a57,57,0,0,1-24.54,7.34A46.4,46.4,0,0,1,1647,1419c-8.44-5-15.75-13-19.08-22.32a42.38,42.38,0,0,1-2-7c-.27-1.17-.56-2.37-.77-3.51l-.33-3.25a68,68,0,0,1,0-12,122.82,122.82,0,0,1,3.9-21c7.48-26.23,19.29-49.28,34.48-71.08,7.72-10.81,16.33-21.31,27.89-30.47,5.85-4.5,12.45-8.85,20.86-11.69,8.22-2.88,19.09-3.72,28.87-.15h0a17.5,17.5,0,0,1,2.48,1.15c3.55,2,6.15,3.7,9.05,5.6s5.51,3.8,8.28,5.71c5.37,3.94,10.61,8,15.67,12.35,10,8.72,19.74,17.92,28.2,28.39,4.47,5,8.31,10.6,12.26,16.07s7.16,11.54,10.66,17.35c3,6.17,6.16,12.21,8.58,18.63l3.46,9.71,1.7,4.85c.52,1.64.85,3.34,1.27,5,6.71,26.67,7.43,55,.41,81a124.24,124.24,0,0,1-16.49,37,95.79,95.79,0,0,1-28.2,27.85,2.79,2.79,0,0,1-3.85-.88A2.85,2.85,0,0,1,1794.3,1503.34Z" transform="translate(-404.19 -577.08)"/><path class="cls-7" d="M1575.8,1478.23c1.2,1,2.93,3.07,4.48,4.69l4.76,5.28c1.58,1.77,3.29,3.47,4.81,5.31s3.35,3.42,4.91,5.25c6.68,6.87,13.43,13.81,21,20,3.74,3.18,7.74,6,11.78,9,4.26,2.4,8.32,5.63,12.91,7.73,8.87,5.24,18.66,8.72,29,12.77l.18.07a2.4,2.4,0,0,1-.43,4.58,102.3,102.3,0,0,1-34.61,1.08,122.16,122.16,0,0,1-17.44-3.67c-5.56-2-11.44-3.7-16.75-6.48-10.88-5.08-21.38-11.43-30.23-19.63a106.53,106.53,0,0,1-12.37-13.19,87,87,0,0,1-5.31-7.45,71.5,71.5,0,0,1-4.73-8.66,16.12,16.12,0,0,1,25-19.17Z" transform="translate(-404.19 -577.08)"/><path class="cls-7" d="M1822.07,1778.36c-1.89,0-3.8,0-5.75-.16a10.27,10.27,0,0,1,1.1-20.51c20.67,1.14,36.1-5,47.19-18.77,46.12-57.16,2.75-218.52,2.3-220.15a10.27,10.27,0,0,1,19.81-5.41c1.93,7,46.56,173.14-6.12,238.45C1866.38,1769.44,1846.71,1778.36,1822.07,1778.36Z" transform="translate(-404.19 -577.08)"/><path class="cls-23" d="M2162.61,1701.86l.39,1.53-.26-1.67A1.54,1.54,0,0,0,2162.61,1701.86Z" transform="translate(-404.19 -577.08)"/><path class="cls-7" d="M2799.13,1537.08c-18.76,2-37.71,4.32-56.52,6.8s-37.62,5.23-56.28,8.43h0a8.16,8.16,0,0,1-3.89-15.81c18.35-5.92,36.79-11.34,55.28-16.54s37-10.17,55.73-14.94a16.32,16.32,0,0,1,8.06,31.63,16.81,16.81,0,0,1-2.19.4Z" transform="translate(-404.19 -577.08)"/><path class="cls-24" d="M1732.5,1266.34a33.57,33.57,0,0,0-4.11,5.47Z" transform="translate(-404.19 -577.08)"/><path class="cls-25" d="M2371.61,1581.22" transform="translate(-404.19 -577.08)"/><path class="cls-5" d="M2674.81,1803.9l-3.87,111.37c-13.32,115.43-54.6,201.92-101.73,247.88-67.82,66.07-187,73.5-227.55,114.84-35.55,36.32-35.69,91.13-43.6,147.17-6.72,47.91-26.66,108.48-76.82,154.75-75.88,70-192.19,56.7-244.53-6.92-59.69-72.65,56.74-204.67,73-220.6,0,0-14.85-27.45-28.79-52.3-35.39-63-8-196.66,71.93-250.63,21.88-14.77,46.79-24.4,71.83-30.57,72.29-17.74,149.08-6.82,215.16,27.77l15.48-90.57,16.95-99.06v0l95-556C2622.46,1488.61,2668.94,1661.17,2674.81,1803.9Z" transform="translate(-404.19 -577.08)"/><g class="cls-6"><path class="cls-7" d="M2674.81,1803.9l0,.16-3.85,111.21c-13.32,115.43-54.59,202-101.73,247.88-67.82,66.07-187,73.5-227.55,114.84-35.55,36.32-35.69,91.13-43.6,147.17-6.72,47.91-26.66,108.48-76.82,154.75-75.88,70-192.19,56.7-244.53-6.92-19.5-23.75-20.21-53.83-11.74-84.1,34.32,115.73,167.82,100.77,236.6,37.37,50.16-46.27,46.92-151.84,53.69-199.76,7.91-56,8-110.85,43.59-147.17,40.49-41.34,159.73-48.77,227.52-114.84,28.25-27.54,54.39-69.66,73.66-123.85-47,11.9-114.52,21.13-204.67,15.45-8.09-.46-16.36-1.1-24.84-1.84,0,0-53.58-59.44,11.37-101.47,0,0,11.52,2.2,30.41,4.22v0c46.7,5,138.5,9,213.66-23.85A212.17,212.17,0,0,0,2674.81,1803.9Z" transform="translate(-404.19 -577.08)"/></g><g class="cls-6"><path class="cls-7" d="M2670.94,1915.27l3.85-111.21A707.57,707.57,0,0,1,2670.94,1915.27Z" transform="translate(-404.19 -577.08)"/></g><g class="cls-6"><path class="cls-7" d="M2674.81,1803.9a212.17,212.17,0,0,1-48.84,29.28c16.14-113.74,4.89-257.58-56.61-419.49C2639.71,1557.73,2670.1,1690.27,2674.81,1803.9Z" transform="translate(-404.19 -577.08)"/></g><path class="cls-7" d="M2377.5,2051.22c-49.93-17.41-100.67-27.12-151.27-24.66a303.86,303.86,0,0,0-74.13,13.06,209,209,0,0,0-34.25,14.08,172.16,172.16,0,0,0-15.76,9.17c-4.7,3.67-9.64,7-14.21,10.88-18.19,15.77-32.67,36.38-43.51,58.78a236.07,236.07,0,0,0-21.27,71.69l-.69,4.63-.32,4.66-.66,9.3c-.34,6.2,0,12.35,0,18.52,1.11,12.1,2.39,24.36,6.34,35.27,1.41,5.79,4.32,10.52,6.51,15.72l9.65,17.56,19.38,35.18,5.5,10-8.28,8.36c-6.44,6.5-13.42,14.67-19.78,22.49s-12.64,16.13-18.53,24.49c-11.73,16.73-22.45,34.15-30.87,52.25s-14.81,36.92-15.88,55.15a72.6,72.6,0,0,0,2.75,25.88,56.91,56.91,0,0,0,12.52,21.76c24.55,28.22,63.15,43.9,101.68,45.75a163.26,163.26,0,0,0,108.27-34.24c3.69-3.14,7.51-6.06,11.12-9.34,3.48-3.49,7.18-6.77,10.41-10.5,6.85-7.1,12.79-15,18.63-23a238.15,238.15,0,0,0,27.34-52.77,281.83,281.83,0,0,0,14.63-58.25c2.88-20.47,4.78-41.57,8.15-63.22,3.52-21.56,8.39-44.2,19.83-65.44a118.41,118.41,0,0,1,21.9-29l7.23-6.29c2.45-2,5-3.45,7.5-5.18,5-3.58,10.15-6,15.25-8.78,20.47-10.27,40.91-17,60.92-24.1s39.66-13.81,58.52-21.83,36.9-17.15,53.15-28.32c3.92-3,8-5.74,11.8-8.77l10.91-9.62c3.44-3.47,6.78-7.08,10.18-10.61l9.49-11.43a304.43,304.43,0,0,0,31.63-51.38,402.47,402.47,0,0,0,23-56.71c25.31-78.2,31.78-162.42,25.41-245.06-6.41-82.84-25.52-164.7-53.88-243.16-7.5-19.47-14.87-39-23.68-58-8.29-19.16-17.64-37.84-26.21-56.89-17.73-37.89-36.5-75.12-51-115.69l0-.06a5.23,5.23,0,0,1,8.77-5.31c7.35,8,14.23,16.25,20.79,24.76a320.66,320.66,0,0,1,18.59,26.28c12.08,17.75,22.17,36.69,32.21,55.63,9.47,19.24,18.69,38.63,26.47,58.65,8.25,19.81,15.71,40,23,60.11,29.16,80.72,49,165.24,55.62,251.29,6.58,85.89,0,173.78-26.85,257a433.5,433.5,0,0,1-24.68,60.86,335.69,335.69,0,0,1-34.89,56.56l-10.79,13c-3.92,4.11-7.77,8.27-11.8,12.3l-12.9,11.39c-4.45,3.54-9.11,6.78-13.67,10.17-18.64,12.82-38.58,22.81-58.67,31.36s-40.45,15.63-60.42,22.57-39.75,13.7-57.13,22.49c-4.17,2.3-8.67,4.39-12.24,7-1.84,1.29-3.93,2.44-5.57,3.81l-4.75,4.13a88.11,88.11,0,0,0-16.13,21.45c-8.78,16.16-13.29,35.53-16.51,55.6s-5.07,41.27-8.07,62.73a313,313,0,0,1-16.26,64.67,269.2,269.2,0,0,1-31,59.68c-6.64,9.12-13.48,18.15-21.32,26.31-3.72,4.26-7.93,8-11.94,12-4.21,3.83-8.78,7.4-13.17,11.09-36.25,28.37-82.84,43.22-128.72,40.75a191.19,191.19,0,0,1-66.95-15.51c-21.2-9.27-40.93-22.87-56.54-40.8a88.26,88.26,0,0,1-18.69-32.88,103.6,103.6,0,0,1-4.06-36.87c1.54-24.19,9.42-46,18.71-66.28,9.46-20.3,21.06-39.05,33.61-57q9.45-13.41,19.78-26.14c7-8.57,13.73-16.58,22.18-25.13l-2.78,18.35-19.23-34.9-9.61-17.5c-3.21-7-7-13.91-8.89-21.12-5-14.31-6.57-28.84-7.82-43.23,0-7.15-.39-14.36,0-21.47l.74-10.65.4-5.32.75-5.26a277.4,277.4,0,0,1,23.81-81.11c12.09-25.64,28.58-49.73,50.29-69.5,22-20.09,48.47-32.86,75.45-41.54a264.16,264.16,0,0,1,41.17-9.72c6.94-1.26,14-1.82,20.95-2.65,7-.4,14-1,21.07-.9,56.09-.81,112.44,15.21,157,47.28a5.19,5.19,0,0,1-4.73,9.11Z" transform="translate(-404.19 -577.08)"/><path class="cls-7" d="M2316.85,2328.62a10.27,10.27,0,0,1-9.74-13.52c41.25-123.59-21.74-197.18-50.74-223.08-46.31-41.37-109.89-57.48-151.17-38.31a10.27,10.27,0,1,1-8.65-18.63c49.15-22.84,120.5-5.72,173.5,41.62,32,28.61,101.65,109.74,56.54,244.9A10.27,10.27,0,0,1,2316.85,2328.62Z" transform="translate(-404.19 -577.08)"/><path class="cls-7" d="M2053.52,2325.78c1.08,1.85,3,4.46,4.67,6.71s3.6,4.65,5.56,6.87a153.79,153.79,0,0,0,12.34,12.95,140.34,140.34,0,0,0,29,21.16,100.88,100.88,0,0,0,34.54,11.26l9.29.93,9.39-.37c1.58-.09,3.19-.08,4.77-.25l4.67-.87,9.48-1.77-8.94,3.73-4.54,1.89c-1.55.51-3.15.85-4.73,1.28l-9.63,2.44-9.94,1.13a113.08,113.08,0,0,1-40.35-4.27,160.88,160.88,0,0,1-37.66-16.72,181.55,181.55,0,0,1-17.17-11.69c-2.79-2.07-5.47-4.33-8.17-6.59s-5.17-4.51-8.15-7.62l-.51-.54a16.43,16.43,0,0,1,23.72-22.74A17,17,0,0,1,2053.52,2325.78Z" transform="translate(-404.19 -577.08)"/><circle class="cls-5" cx="1568.51" cy="1260.71" r="54.32"/><g class="cls-22"><path class="cls-7" d="M1918.45,1840.38a54.32,54.32,0,1,0,108.52-5.19,53.63,53.63,0,0,0-6.32-23,54.33,54.33,0,0,1-98.09,4.7A53.56,53.56,0,0,0,1918.45,1840.38Z" transform="translate(-404.19 -577.08)"/></g><path class="cls-7" d="M1972.66,1907.52a69.82,69.82,0,0,1-69.61-66.4h0a69.72,69.72,0,1,1,73,66.31C1974.9,1907.49,1973.78,1907.52,1972.66,1907.52Zm.06-108.64c-.63,0-1.25,0-1.88,0a38.92,38.92,0,0,0-37,40.73h0a38.91,38.91,0,1,0,38.89-40.78Z" transform="translate(-404.19 -577.08)"/><path class="cls-5" d="M2035.7,1969.69l287.15,3.33a62,62,0,0,0,62.55-61.12l1.76-152.81a62.05,62.05,0,0,0-48.78-61.15,59.58,59.58,0,0,0-12.34-1.39l-287.11-3.33a62,62,0,0,0-62.54,61.11l-1.43,121-.38,31.78A62,62,0,0,0,2035.7,1969.69Z" transform="translate(-404.19 -577.08)"/><g class="cls-6"><path class="cls-7" d="M2035.7,1969.69l287.15,3.33a62,62,0,0,0,62.55-61.12l1.76-152.81a62.05,62.05,0,0,0-48.78-61.15c-16.43,10.64-26.86,17.45-26.86,17.45-15.41,122.5-11.07,213.49-201.24,198.67-65.56-5.11-109.29-24.91-135.32-38.7l-.38,31.78A62,62,0,0,0,2035.7,1969.69Z" transform="translate(-404.19 -577.08)"/></g><path class="cls-7" d="M2323.57,1988.44h-.91l-287.13-3.33a77.42,77.42,0,0,1-76.34-78.13l1.77-152.83c.5-42.59,35.4-77,78.14-76.34l287.13,3.33a77.33,77.33,0,0,1,76.33,78.14l-1.77,152.83a77.44,77.44,0,0,1-77.22,76.34ZM2038.2,1708.6a46.5,46.5,0,0,0-46.43,45.9L1990,1907.33a46.63,46.63,0,0,0,45.89,47l287.13,3.34h0a45.57,45.57,0,0,0,32.94-13.27,46.06,46.06,0,0,0,14-32.62l1.78-152.83a46.61,46.61,0,0,0-45.89-47l-287.13-3.33Z" transform="translate(-404.19 -577.08)"/><path class="cls-5" d="M2024.19,1968.42a55,55,0,0,0,11.51,1.27l287.15,3.33a62,62,0,0,0,56.68-35.69,60.89,60.89,0,0,0,5.83-25.43l.81-67.89.27-22.39.72-62.53a62,62,0,0,0-61.12-62.54l-62-.71a62,62,0,0,1,49.69,61.28l-.94,82.54-.82,70.31a62.05,62.05,0,0,1-62.55,61.12Z" transform="translate(-404.19 -577.08)"/><g class="cls-6"><path class="cls-7" d="M2024.19,1968.42a55,55,0,0,0,11.51,1.27l287.15,3.33a62,62,0,0,0,62.51-61.12l1.08-90.28c-7.41,15.86-20.61,35.3-41.4,37.11-11.4,1-22.52-7.3-32.29-19.07l-.82,70.31a62.05,62.05,0,0,1-62.55,61.12Z" transform="translate(-404.19 -577.08)"/></g><path class="cls-7" d="M2323.62,1988.44h-.95l-287.15-3.34a72.49,72.49,0,0,1-14.55-1.58,15.4,15.4,0,0,1,3.2-30.47h.19l225.21,2.63a46.59,46.59,0,0,0,46.94-45.88l1.77-152.83a46.47,46.47,0,0,0-37.3-46,15.41,15.41,0,0,1,3-30.51h.18l62,.7a77.34,77.34,0,0,1,76.34,78.16l-1.77,152.81a77.4,77.4,0,0,1-77.16,76.35Zm-13.27-31,12.68.15h.57a46.59,46.59,0,0,0,46.37-45.89h0l1.78-152.83a46.5,46.5,0,0,0-45.9-47l-11-.12a77,77,0,0,1,14.23,45.51l-1.78,152.82A76.46,76.46,0,0,1,2310.35,1957.48Z" transform="translate(-404.19 -577.08)"/><path class="cls-16" d="M2199.57,1833.47c0,5.65,7.64,51.32,7.64,51.32l32.2.19c22.17.13,40.28-22.72,40.44-51s-17.67-51.37-39.84-51.5l-32.2-.19S2199.62,1824.27,2199.57,1833.47Z" transform="translate(-404.19 -577.08)"/><g class="cls-22"><path class="cls-7" d="M2199.57,1833.47c0,5.65,7.64,51.32,7.64,51.32l32.2.19c22.17.13,40.28-22.72,40.44-51s-17.67-51.37-39.84-51.5l-32.2-.19S2199.62,1824.27,2199.57,1833.47Z" transform="translate(-404.19 -577.08)"/></g><path class="cls-7" d="M2239.6,1895.25h-.25l-32.2-.19a10.25,10.25,0,0,1-10.06-8.57c-2.36-14-7.83-47.17-7.79-53.08h0c.06-9.68,7-46,8.43-53.13a10.45,10.45,0,0,1,10.14-8.3l32.2.19c27.8.16,50.25,27.9,50,61.84S2267.28,1895.25,2239.6,1895.25Zm-23.68-20.68,23.55.14h.13c16.42,0,29.85-18.28,30-40.83s-13.16-41.08-29.63-41.18l-23.65-.13c-2.94,15.69-6.41,35.79-6.46,40.92C2209.93,1836.76,2212.81,1855.61,2215.92,1874.57Z" transform="translate(-404.19 -577.08)"/><ellipse class="cls-16" cx="2207.51" cy="1833.52" rx="51.27" ry="40.14" transform="translate(-43.11 3453.16) rotate(-89.66)"/><g class="cls-22"><path class="cls-7" d="M2247.65,1833.76c-.15,28.3-18.26,51.17-40.43,51s-40-23.2-39.84-51.53a61.92,61.92,0,0,1,1-11.16c5.59,19.48,20.19,33.43,37.41,33.5,19.14.11,35.28-16.91,39.39-39.84A64.15,64.15,0,0,1,2247.65,1833.76Z" transform="translate(-404.19 -577.08)"/></g><path class="cls-5" d="M2247.65,1833.76a53.57,53.57,0,0,1-.3,5.7c-4.28-22.21-19.93-38.7-38.66-38.8-20.66-.11-37.82,19.73-40.12,45.37a64.3,64.3,0,0,1-1.19-12.76c.15-28.3,18.26-51.16,40.43-51S2247.81,1805.43,2247.65,1833.76Z" transform="translate(-404.19 -577.08)"/><path class="cls-7" d="M2207.41,1895.06h-.26c-13.94-.08-26.86-6.89-36.36-19.17-8.92-11.54-13.78-26.69-13.69-42.67h0c.2-33.83,22.85-61.24,50.53-61.24h.25c13.94.08,26.86,6.89,36.36,19.17,8.92,11.53,13.78,26.69,13.68,42.67s-5.13,31.07-14.19,42.5C2234.15,1888.41,2221.26,1895.06,2207.41,1895.06Zm-40-61.78,10.27.06c-.07,11.42,3.27,22.06,9.4,30,5.55,7.18,12.74,11.16,20.23,11.2s14.73-3.85,20.37-11c6.22-7.85,9.68-18.45,9.75-29.87s-3.27-22-9.4-30c-5.55-7.18-12.74-11.16-20.24-11.2h-.12c-16.42,0-29.86,18.27-30,40.82Z" transform="translate(-404.19 -577.08)"/><path class="cls-7" d="M2119.84,1979.89a10.28,10.28,0,0,1-10.27-10.14l-1.15-95.82a8.68,8.68,0,0,0-4-7.22l-31.48-20.3a29.11,29.11,0,0,1-13.39-24.81l1-127.95a10.27,10.27,0,0,1,10.27-10.18h.08a10.27,10.27,0,0,1,10.19,10.35l-1.05,127.94a8.69,8.69,0,0,0,4,7.39l31.48,20.3a29.19,29.19,0,0,1,13.39,24.22l1.15,95.83a10.26,10.26,0,0,1-10.14,10.39Z" transform="translate(-404.19 -577.08)"/><path class="cls-5" d="M2679.86,1729.79s29.82,19.37,29.51,53.39c-.35,39.33-28.59,57.79-28.59,57.79s-95.93,65.88-313.75,46.49c0,0-53.58-59.45,11.39-101.49C2378.42,1786,2576.92,1824.13,2679.86,1729.79Z" transform="translate(-404.19 -577.08)"/><g class="cls-6"><path class="cls-7" d="M2709.37,1782.41h0c0,39.85-28.61,58.56-28.61,58.56s-95.92,65.86-313.75,46.48c0,0-40.93-45.44-7.85-85l.09.73c3.45,24.64,24.32,43.28,49.16,44.71,197.41,11.4,284.84-48.61,284.84-48.61S2701.7,1793.83,2709.37,1782.41Z" transform="translate(-404.19 -577.08)"/></g><path class="cls-7" d="M2445.33,1903.88c-21.33,0-44.14-.83-68.52-2.73a36.66,36.66,0,0,1-27.81-16.49c-24.29-37.6-19.8-75.68,12-101.86a36.77,36.77,0,0,1,28.78-8c40.63,6.13,179.92,21.17,266.76-42.52h0a36.92,36.92,0,0,1,28-6.72,36.28,36.28,0,0,1,24,15.13c9.2,13.16,13.8,27.48,13.66,42.57-.42,45.67-33,67.51-34.41,68.42C2684.53,1854,2609.69,1903.88,2445.33,1903.88Zm-61-103.78a11,11,0,0,0-7,2.52c-27.38,22.55-18.79,49.48-6.76,68.1a10.85,10.85,0,0,0,8.24,4.84c202.2,15.68,293.85-44.59,294.75-45.19s22.7-15.74,23-47.31c.09-9.63-2.95-18.92-9-27.62a10.85,10.85,0,0,0-7.15-4.51,11.4,11.4,0,0,0-8.64,2.1c-94.75,69.49-242.67,53.7-285.76,47.2A11.19,11.19,0,0,0,2384.33,1800.1Z" transform="translate(-404.19 -577.08)"/><path class="cls-26" d="M2853.27,732.15c.06-.12.12-.29.19-.42C2853.33,732,2853.27,732.15,2853.27,732.15Z" transform="translate(-404.19 -577.08)"/><path class="cls-5" d="M2523.6,1361.06s229.59,194.41,270-30.52l183.22,68.92s4.31,243.62-191,286.17c-117.43,25.59-180.45-71-180.45-71Z" transform="translate(-404.19 -577.08)"/><g class="cls-22"><path class="cls-7" d="M2785.8,1685.64c-117.41,25.59-180.44-71-180.44-71h0c-4.43-14.44,12-26.38,24.27-17.53,30.43,22,76.75,41.67,137.74,28.37,138-30,205.51-175.39,60.67-234.44l148.73,8.44S2981.09,1643.09,2785.8,1685.64Z" transform="translate(-404.19 -577.08)"/></g><path class="cls-7" d="M2527.11,1356.92c14.41,4.91,27.58,11.19,40.32,17.71,6.37,3.27,12.6,6.68,18.81,10.07l18.76,9.73c24.85,12.53,50.37,24.62,76.44,27.64,12.91,1.51,25.56.73,36.83-2.93a64.91,64.91,0,0,0,29.16-19.4,44.93,44.93,0,0,0,5.73-7.22,50.73,50.73,0,0,0,5.13-7.92l4.63-8.47,3.76-9.17,1.9-4.58,1.47-4.86,3-9.71c1.7-6.61,3-13.44,4.52-20.14l4.34-18.91,17.41,6.55,183.22,68.91,10.49,4,.05,11c0,7-.24,13-.61,19.34s-.92,12.51-1.58,18.73q-2,18.67-5.55,37.1a394.31,394.31,0,0,1-21,72.32c-9.62,23.37-21.47,46.18-37.1,66.68s-34.17,39.06-55.79,53.55a234.11,234.11,0,0,1-70.55,31.67c-6.22,1.61-12.39,3.35-18.94,4.17l-9.68,1.55a65,65,0,0,1-9.76,1.14c-6.58.24-13.16.73-19.75.7-6.59-.47-13.21-.87-19.79-1.48-26.4-3.43-51.46-13.39-74.39-26.29a118.45,118.45,0,0,1-30.22-25c-8.47-10-15.22-21.48-17.54-35.72a5.91,5.91,0,0,1,8.44-6.25l.65.32c22.77,11.2,38.76,25.35,57.15,37.37a131.12,131.12,0,0,0,28.69,15.45c5.09,1.9,10.37,3.17,15.53,4.84,5.3,1.11,10.65,2,16,3l16.24,1.21c5.44,0,10.91-.44,16.36-.6a48.07,48.07,0,0,0,8.16-1l8.16-1.3c5.44-.63,10.88-2.19,16.32-3.59a201.76,201.76,0,0,0,60.73-27.19c18.45-12.36,34.42-28.25,48-46.13s24.24-38.18,32.95-59.31a361.55,361.55,0,0,0,19.23-66.3c2.18-11.37,3.91-22.85,5.14-34.37.61-5.76,1.12-11.53,1.46-17.28s.58-11.7.55-16.78l10.55,15-183.22-68.92,21.75-12.36c-1.7,7.62-3.16,15.24-5.12,22.84l-3.46,11.36-1.75,5.67-2.28,5.61-4.64,11.19-5.9,10.89a77.81,77.81,0,0,1-6.83,10.53,71.55,71.55,0,0,1-7.95,10,97.78,97.78,0,0,1-43.4,28.63c-16.75,5.42-34.13,6.14-50.34,4.33a227.35,227.35,0,0,1-46.69-10.59,256.11,256.11,0,0,1-42.6-18.59c-26.63-15.18-51.79-32.87-68.53-60.08a5.71,5.71,0,0,1,6.68-8.4Z" transform="translate(-404.19 -577.08)"/><path class="cls-5" d="M2759.11,1324.9c29.06,120.64,150.76,109.4,184.26,101.24,69.87-17,93.84-82.86,93.84-82.86l-56.35-74.47-25.06-40.31-29.93-9c-23.52-42.87-73.61-91.48-102.38-74.33C2823.49,1145.18,2734.05,1220.93,2759.11,1324.9Z" transform="translate(-404.19 -577.08)"/><g class="cls-22"><path class="cls-7" d="M3047.58,1304.34c0,37.59-49.23,71.69-155.21,59.33-37.33-4.35-68-30.47-68-68.05a68,68,0,0,1,68-68C2930,1227.57,3047.58,1266.76,3047.58,1304.34Z" transform="translate(-404.19 -577.08)"/></g><path class="cls-5" d="M3043.85,1182.71c-27.83,27.93-52.19,48.52-52.19,48.52l-78.09,79.91-52.7-128.7s-.31-26,1.71-60.35c4-68.08,16.92-169,59-166.44,75.66,4.7,25.6,203.94,25.6,203.94s120.77-161,169.15-115.29C3144.61,1071.07,3089.55,1136.8,3043.85,1182.71Z" transform="translate(-404.19 -577.08)"/><g class="cls-22"><path class="cls-7" d="M3043.85,1182.71c-27.83,27.93-52.19,48.52-52.19,48.52l-78.09,79.91-52.7-128.7s-.31-26,1.71-60.35c20.28,16,58.1,45.12,71.33,62.45C2956.7,1214.39,3013.31,1176.81,3043.85,1182.71Z" transform="translate(-404.19 -577.08)"/></g><path class="cls-7" d="M2913.56,1327.43a16.46,16.46,0,0,1-3.11-.3,16.3,16.3,0,0,1-11.95-9.81l-52.7-128.73a16.16,16.16,0,0,1-1.21-6c-.22-19-.75-186.69,45.58-230.73,9.37-8.9,20.58-13.21,32.4-12.48,15.95,1,29.44,8.43,39,21.51,22.76,31.13,20,92.62,13.39,140,32.63-35.62,78.52-77.69,115.56-80.84,14.31-1.23,27.1,3.08,37,12.42,8.74,8.27,13.18,19.45,12.82,32.34-1.7,61-121,164.29-137.55,178.31l-77.56,79.39A16.33,16.33,0,0,1,2913.56,1327.43Zm-36.44-148.28,42.12,102.9,60.78-62.21c.36-.37.74-.72,1.13-1.06,48.43-41,125.64-119.21,126.63-154.86.12-4.53-1.27-6.47-2.65-7.77-2.09-2-5.31-4.2-11.84-3.65-35.32,3-100.39,73.28-133.12,116.87a16.28,16.28,0,0,1-28.81-13.73c13.07-52.08,25.68-145.78,3.93-175.52-3.87-5.3-8.42-7.84-14.73-8.23-1.85-.13-4.39.19-8,3.58C2885.81,1000.93,2876.69,1112.52,2877.12,1179.15Z" transform="translate(-404.19 -577.08)"/><path class="cls-5" d="M3051.5,1329.36c-18.53,30.12-97.21,44.19-126.4,21.54-24.84-19.28,0-43.85,7-50.09,1.1-1,1.78-1.51,1.78-1.51s-30.22-9.26-35.51-34.72a35.19,35.19,0,0,1-.68-5.18c-1.86-29.37,76.58-54.73,112.19-49,26.63,4.29,36.78,15.13,39.29,26.73,2.67,12.35-3.33,25.56-7.35,32.63-1.85,3.22-3.25,5.14-3.25,5.14S3066.35,1305.24,3051.5,1329.36Z" transform="translate(-404.19 -577.08)"/><g class="cls-22"><path class="cls-7" d="M3041.85,1269.76c-21,10.77-63.19,29.09-109.72,31,1.1-1,1.78-1.51,1.78-1.51s-30.22-9.26-35.51-34.72c27.9,6.1,105,17.74,150.8-27.45C3051.87,1249.48,3045.87,1262.69,3041.85,1269.76Z" transform="translate(-404.19 -577.08)"/></g><g class="cls-22"><path class="cls-7" d="M3051.5,1329.36c-18.53,30.12-97.21,44.19-126.4,21.54-12.22-9.47-12.42-20.21-8.65-29.44a38.17,38.17,0,0,0,4.77,4.4c29.16,22.64,107.84,8.57,126.36-21.52a28.16,28.16,0,0,0,3.78-9.6C3056,1305.06,3058.53,1317.9,3051.5,1329.36Z" transform="translate(-404.19 -577.08)"/></g><path class="cls-7" d="M2968,1378.38c-21.72,0-40.49-5-52.82-14.61-14.12-10.94-17.11-23.51-17.13-32.12,0-10.51,4.36-20,9.54-27.59-12.84-9.1-24.77-23.41-26.06-43.61-.51-8,1.74-20.12,15.37-32.5,27.06-24.58,85.41-38.49,115.65-33.63h0c26.41,4.25,43.35,15.06,50.37,32.14,7.22,17.6,1.06,35.89-4.64,47.2,11.27,16.55,20.84,42,7.12,64.24-11,17.83-36.78,32-69,37.82A158.77,158.77,0,0,1,2968,1378.38Zm30.8-152.52c-23.65,0-62.57,10.91-79.48,25.71-4.4,3.86-5.32,6.39-5.3,6.81,1.12,17.62,24.55,25.31,24.79,25.38a16.32,16.32,0,0,1,5.17,28.36c-5.6,4.46-13.41,13.75-13.37,19.49,0,.73,0,3,4.52,6.44,9.81,7.61,32.09,9.88,55.44,5.64,25.69-4.66,42.17-14.84,47.11-22.86,7.94-12.88-10.9-34.75-11.1-35a16.34,16.34,0,0,1-1.09-20.57c3.75-5.23,10.55-18.7,7.29-26.51-2.36-5.69-11.39-10.07-25.4-12.33h0A55.6,55.6,0,0,0,2998.76,1225.86Z" transform="translate(-404.19 -577.08)"/><path class="cls-7" d="M2943.8,1309.86q-5.18,0-10.49-.31a10.27,10.27,0,1,1,1.21-20.5c53.83,3.13,98.4-22.72,98.84-23a10.27,10.27,0,1,1,10.44,17.69C3041.89,1284.89,2998.91,1309.86,2943.8,1309.86Z" transform="translate(-404.19 -577.08)"/><path class="cls-5" d="M2823.5,1145.19c38.18-22.77,113.87,70.24,115.26,112,1.06,31.87-36.68,58.45-81.78,17.79C2811.29,1233.77,2763.53,1181,2823.5,1145.19Z" transform="translate(-404.19 -577.08)"/><path class="cls-5" d="M3037.21,1343.3s-24,65.82-93.82,82.84c-33.51,8.16-155.21,19.4-184.29-101.24-25-104,64.4-179.71,64.4-179.71,38.18-22.77,113.87,70.24,115.26,112,1.06,31.87-46.29,49.93-86-6.13,0,0,20.9,50.92-23.72,85.67l105.13,60.55,79.5-15.51Z" transform="translate(-404.19 -577.08)"/><path class="cls-5" d="M2849.85,1312.3l-2.09-1.2c1.58-1.23,3-2.43,4.39-3.7C2851.47,1309,2850.71,1310.66,2849.85,1312.3Z" transform="translate(-404.19 -577.08)"/><g class="cls-22"><path class="cls-7" d="M2854.45,1241.59c-5.59-20.59,53.54,31.82,84.3,18.36-1.47,25.87-35.54,40.89-69.55,9.91C2867.18,1253.29,2854.45,1241.59,2854.45,1241.59Z" transform="translate(-404.19 -577.08)"/></g><g class="cls-22"><path class="cls-7" d="M3000.3,1384.36l13.42-2.61c-14.82,17.63-37.54,36.4-70.34,44.4-33.52,8.16-155.22,19.38-184.28-101.26-17-70.74,18.94-128.45,43.68-158.06-20.14,32.11-38,78.5-25,132.47,29.06,120.64,150.76,109.42,184.28,101.25A128,128,0,0,0,3000.3,1384.36Z" transform="translate(-404.19 -577.08)"/></g><path class="cls-5" d="M3037.19,1343.35a107.4,107.4,0,0,1-6.18,13.08l-2.06.41Z" transform="translate(-404.19 -577.08)"/><path class="cls-5" d="M3032.39,1356.15c-1.1,1.31-2.24,2.64-3.44,3.95.72-1.27,1.41-2.51,2.06-3.67Z" transform="translate(-404.19 -577.08)"/><path class="cls-7" d="M2808.75,1407.38a95.81,95.81,0,0,1-32.88-22.12,124,124,0,0,1-23.07-33.34c-11.73-24.26-16.28-52.2-14.64-79.65.11-1.72.12-3.45.32-5.15l.78-5.09,1.59-10.18c1.2-6.75,3.22-13.29,5-19.9,2.36-6.36,4.52-12.85,7.26-19a195.17,195.17,0,0,1,9.06-18.06c6.37-11.86,14.21-22.7,22.45-33.13,4.16-5.18,8.55-10.17,13.1-15,2.37-2.39,4.61-4.82,7.08-7.15s4.74-4.53,7.85-7.18a16,16,0,0,1,2.15-1.55l.1-.06c8.95-5.32,19.78-6.51,28.4-5.21a70.9,70.9,0,0,1,22.66,7.62c13.07,6.86,23.47,15.58,33.07,24.76,19,18.61,34.84,39.06,47.07,63.45a122.54,122.54,0,0,1,7.73,20,67.68,67.68,0,0,1,2.26,11.83l.28,3.25c0,1.17,0,2.4-.1,3.6a42.1,42.1,0,0,1-.73,7.23c-1.53,9.78-7.23,19-14.6,25.47a46.46,46.46,0,0,1-25.73,11.41,56.74,56.74,0,0,1-25.47-2.66c-1.92-.67-3.87-1.32-5.73-2.07l-5.23-2.67a64.44,64.44,0,0,1-9.67-6c-12.11-8.8-20.89-19.88-28.23-31.19l25.47-14a61.64,61.64,0,0,1,2,7.45c.49,2.3.87,4.59,1.17,6.87a104.05,104.05,0,0,1,.76,13.76,79.06,79.06,0,0,1-11,39.21,66.65,66.65,0,0,1-8.12,10.63c-5.75,6.7-13.11,11.49-20.37,15.45a2.74,2.74,0,0,1-3.56-4l.23-.32c2.29-3.28,4.84-6.14,6.85-9.35a77.49,77.49,0,0,0,5.39-9.7,60.74,60.74,0,0,0,5.73-20.15,71.21,71.21,0,0,0-.56-20.31,78.06,78.06,0,0,0-2.32-9.86c-.46-1.61-1-3.19-1.56-4.72a32.34,32.34,0,0,0-1.68-3.89,14.33,14.33,0,0,1,23.15-16.72l2.32,2.72c7.11,8.32,14.82,15.71,22.9,20.75a33.61,33.61,0,0,0,6.07,3.22l3,1.33,3,.76a30.08,30.08,0,0,0,5.65,1,13,13,0,0,0,2.58,0,7,7,0,0,0,2.41-.23,13.49,13.49,0,0,0,7.17-3.26,9.71,9.71,0,0,0,3.3-5.65c.29-.52,0-1.25.2-1.86l.14-1-.11-1.31a37.05,37.05,0,0,0-1.06-6.16,88.61,88.61,0,0,0-5-14.33,184.81,184.81,0,0,0-38.59-54.52c-7.94-7.74-16.75-14.56-25.38-19a36.42,36.42,0,0,0-11.9-3.91c-3.43-.34-5.35.19-7,1.16l2.25-1.61c-1.56,1.43-3.78,3.61-5.68,5.57s-3.88,4.18-5.83,6.25c-3.78,4.31-7.45,8.74-10.92,13.34A219.05,219.05,0,0,0,2793.4,1212c-2.93,4.91-4.94,10.18-7.45,15.24-2.31,5.14-4,10.46-6.08,15.68-1.31,5.4-3.27,10.66-4.38,16.08l-1.53,8.16-.79,4.08c-.2,1.37-.22,2.74-.35,4.12a140.41,140.41,0,0,0-.07,33.1c.87,5.51,1.12,11.08,2.36,16.67q1.63,8.38,4,16.55a157.34,157.34,0,0,0,32.79,61.23,2.78,2.78,0,0,1-.27,3.94A2.81,2.81,0,0,1,2808.75,1407.38Z" transform="translate(-404.19 -577.08)"/><path class="cls-7" d="M3052.5,1348.87a71.26,71.26,0,0,1-3,9.39,87,87,0,0,1-3.84,8.3,106.16,106.16,0,0,1-9.7,15.26c-7.18,9.69-16.32,17.88-26.07,24.9-4.7,3.71-10.16,6.47-15.26,9.47a121.54,121.54,0,0,1-16.45,6.84,101.88,101.88,0,0,1-34.21,5.36,2.38,2.38,0,0,1-1.28-4.4l.17-.11c9.46-5.91,18.43-11.15,26.18-18,4.12-2.91,7.51-6.84,11.25-10,3.41-3.67,6.83-7.16,9.91-11,6.29-7.48,11.64-15.54,16.93-23.54,1.2-2.08,2.54-4.07,3.85-6.07,1.15-2.09,2.51-4.07,3.75-6.11l3.69-6.07c1.22-1.88,2.53-4.23,3.53-5.44l2.49-3a16.11,16.11,0,0,1,28.09,14.19Z" transform="translate(-404.19 -577.08)"/><path class="cls-7" d="M2819,1680a68.7,68.7,0,0,1-45.83-16.85c-63.88-54.4-50.84-225.9-50.26-233.18a10.27,10.27,0,0,1,20.48,1.65c-.14,1.68-12.82,168.29,43.11,215.89,13.45,11.45,29.74,14.62,49.84,9.7a10.27,10.27,0,0,1,4.9,19.94A93.19,93.19,0,0,1,2819,1680Z" transform="translate(-404.19 -577.08)"/><path class="cls-5" d="M2730.44,1111.93h0a9.63,9.63,0,0,1-11.51-7.3l-60.68-271a9.64,9.64,0,0,1,7.3-11.52h0a101.15,101.15,0,0,1,120.8,76.6l20.69,92.4A101.15,101.15,0,0,1,2730.44,1111.93Z" transform="translate(-404.19 -577.08)"/><path class="cls-7" d="M2728.34,1115.19a12.69,12.69,0,0,1-12.36-9.9l-60.68-271a12.68,12.68,0,0,1,9.59-15.13,104.28,104.28,0,0,1,124.41,78.89l20.69,92.4a104.29,104.29,0,0,1-78.88,124.41h0A12.43,12.43,0,0,1,2728.34,1115.19ZM2687.66,822.7a98.05,98.05,0,0,0-21.45,2.38,6.63,6.63,0,0,0-5,7.91l60.68,271a6.63,6.63,0,0,0,7.9,5h0a98.22,98.22,0,0,0,74.31-117.18l-20.69-92.41A98.29,98.29,0,0,0,2687.66,822.7Z" transform="translate(-404.19 -577.08)"/><g class="cls-22"><path class="cls-7" d="M2797.34,947.8l9.71,43.34A101.19,101.19,0,0,1,2730.44,1112a9.66,9.66,0,0,1-11.52-7.32l-16.15-72a9.64,9.64,0,0,0,9.81,3.66l6.42-1.45A101.08,101.08,0,0,0,2797.34,947.8Z" transform="translate(-404.19 -577.08)"/></g><path class="cls-7" d="M2728.34,1129a26.52,26.52,0,0,1-25.83-20.68l-60.68-271a26.5,26.5,0,0,1,20-31.61,118.13,118.13,0,0,1,140.9,89.34l20.69,92.41a118.11,118.11,0,0,1-89.34,140.89h0A26.12,26.12,0,0,1,2728.34,1129Zm-1.55-33.48h0ZM2676.3,837.27l57.41,256.38a84.44,84.44,0,0,0,56.91-98.84l-20.69-92.41A84.44,84.44,0,0,0,2676.3,837.27Z" transform="translate(-404.19 -577.08)"/><path class="cls-5" d="M1771.09,1022.43h0a9.63,9.63,0,0,1,11.51,7.3l60.68,271a9.64,9.64,0,0,1-7.3,11.52h0a101.14,101.14,0,0,1-120.79-76.6l-20.7-92.41A101.14,101.14,0,0,1,1771.09,1022.43Z" transform="translate(-404.19 -577.08)"/><path class="cls-7" d="M1813.87,1317.71a104.34,104.34,0,0,1-101.63-81.42l-20.69-92.4a104.27,104.27,0,0,1,78.88-124.41h0a12.66,12.66,0,0,1,15.12,9.59l60.68,271a12.68,12.68,0,0,1-9.58,15.13A104.15,104.15,0,0,1,1813.87,1317.71Zm-42.12-292.33a98.22,98.22,0,0,0-74.31,117.18l20.69,92.41a98.24,98.24,0,0,0,117.19,74.31,6.64,6.64,0,0,0,5-7.91l-60.68-271a6.65,6.65,0,0,0-7.91-5Z" transform="translate(-404.19 -577.08)"/><g class="cls-22"><path class="cls-7" d="M1826.47,1225.53l16.83,75.18a9.66,9.66,0,0,1-7.32,11.52,101.09,101.09,0,0,1-120.78-76.58l-8.72-38.94a101.15,101.15,0,0,0,102.89,37.83l9.89-2.21A9.75,9.75,0,0,0,1826.47,1225.53Z" transform="translate(-404.19 -577.08)"/></g><path class="cls-7" d="M1813.87,1331.51a118.17,118.17,0,0,1-115.1-92.2l-20.69-92.41A117.94,117.94,0,0,1,1767.41,1006h0a26.48,26.48,0,0,1,31.6,20l60.68,271a26.48,26.48,0,0,1-20,31.6A117.63,117.63,0,0,1,1813.87,1331.51Zm-46-290.81a84.34,84.34,0,0,0-56.91,98.85l20.69,92.4a84.42,84.42,0,0,0,93.63,65.13Z" transform="translate(-404.19 -577.08)"/><circle class="cls-5" cx="1846.63" cy="490.09" r="473.22"/><path class="cls-7" d="M2249.81,1543.51c-101,0-199.1-32.1-281.9-93.24-102.33-75.57-169.11-186.47-188-312.26s12.28-251.43,87.84-353.76,186.47-169.1,312.26-188,251.43,12.27,353.76,87.84,169.1,186.46,188,312.26-12.27,251.42-87.84,353.75-186.46,169.11-312.26,188A483.09,483.09,0,0,1,2249.81,1543.51Zm2-946.64a477.47,477.47,0,0,0-70.94,5.33c-124.2,18.69-233.68,84.61-308.29,185.64s-105.41,225.07-86.73,349.27,84.61,233.68,185.64,308.29,225.08,105.41,349.26,86.73,233.69-84.61,308.3-185.64,105.41-225.07,86.73-349.27-84.61-233.68-185.64-308.29C2448.4,628.56,2351.59,596.87,2251.82,596.87Z" transform="translate(-404.19 -577.08)"/><g class="cls-22"><path class="cls-7" d="M2704.55,932.67a470.05,470.05,0,0,1,14.23,64.11c38.84,258.44-139.14,499.46-397.57,538.36S1821.75,1396,1782.85,1137.56c-1.12-7.43-2.07-14.89-2.81-22.27,65.81,223,287.65,369,524.12,333.47C2555.16,1411,2730.23,1182.57,2704.55,932.67Z" transform="translate(-404.19 -577.08)"/></g><path class="cls-7" d="M2249.78,1557.31c-104,0-204.87-33-290.07-95.94-105.3-77.76-174-191.87-193.48-321.31s12.63-258.71,90.39-364,191.87-174,321.31-193.47c267.23-40.2,517.29,144.49,557.48,411.69h0c19.47,129.44-12.63,258.72-90.39,364s-191.86,174-321.3,193.48A497.85,497.85,0,0,1,2249.78,1557.31Zm1.33-946.58a457.63,457.63,0,0,0-68.18,5.12C2062.38,634,1956.11,698,1883.69,796s-102.32,218.46-84.18,339,82.12,226.82,180.19,299.24,218.47,102.31,339,84.18,226.83-82.13,299.25-180.19,102.31-218.46,84.18-339h0C2668.15,773.34,2473,610.73,2251.11,610.73Z" transform="translate(-404.19 -577.08)"/><path class="cls-7" d="M2719.09,1009c15.15,91.35-.43,181.08-39.5,259.67-29.3,58.92-170.32,176.92-363,210.68-178.69,31.29-357.34-37.11-404.09-83.41-62.36-61.75-106.09-141.65-121.24-233-40.11-241.74,151-376.42,407.2-418.93S2679,767.27,2719.09,1009Z" transform="translate(-404.19 -577.08)"/><g class="cls-27"><ellipse class="cls-5" cx="2557.24" cy="1022.48" rx="79.44" ry="57.56" transform="translate(1092.73 2987.18) rotate(-89.15)"/></g><g class="cls-27"><ellipse class="cls-5" cx="2513.44" cy="1189.26" rx="36.46" ry="31.29" transform="translate(549.78 2914.29) rotate(-81.21)"/></g><g class="cls-22"><path class="cls-28" d="M2591.44,798.46C2657.13,843.17,2703,911.91,2719.08,1009c15.16,91.37-.44,181.1-39.48,259.68-29.31,58.92-170.35,176.92-363.06,210.69-68,11.94-136.06,9.39-196.83-.91,236-46.56,407.65-191.15,444-264.22,49.6-99.75,69.37-213.65,50.12-329.56A479,479,0,0,0,2591.44,798.46Z" transform="translate(-404.19 -577.08)"/></g><path class="cls-7" d="M1792,966.38a15.2,15.2,0,0,1-7.88-2.19,15.36,15.36,0,0,1-5.84-20.13c62.45-134.82,210.76-230.82,407-263.38,195-32.35,366.07,8.39,469.37,111.8a15.4,15.4,0,0,1-18.51,24.37l-1.63-1-1.43-1.39c-96.16-96.44-257.54-134.13-442.75-103.41C2004.05,742,1864,831.76,1806,957.4l-.78,1.47A15.45,15.45,0,0,1,1792,966.38Z" transform="translate(-404.19 -577.08)"/><g class="cls-27"><path class="cls-5" d="M1929.49,1274.67s-107.08-211.52-1.58-320.4,278.59-137.22,276.38-125.45c0,0-183.85,78.15-233.67,242C1932.2,1197.19,1929.49,1274.67,1929.49,1274.67Z" transform="translate(-404.19 -577.08)"/></g></svg>