<svg xmlns="http://www.w3.org/2000/svg" viewBox="0 0 3106.27 2126.97"><defs><style>.cls-1{fill:#b5cfdd;}.cls-2{fill:#000072;}.cls-3{opacity:0.6;}.cls-4{fill:#fff;}.cls-5{opacity:0.3;}.cls-6{fill:#dd8e58;}.cls-7{fill:#e57c35;}.cls-8{opacity:0.5;}.cls-9{opacity:0.35;}.cls-10{fill:#ffa76c;}.cls-11{fill:#8ac457;}.cls-12{fill:#ff7878;}.cls-13{opacity:0.7;}</style></defs><g id="Layer_2" data-name="Layer 2"><g id="Layer_1-2" data-name="Layer 1"><path class="cls-1" d="M1868.56,1525.21c124.67,6,203.73-50.15,238.67,71.64,5.68,19.82,5.34,48,20.86,92.68,36,103.51,189.55,127.35,266.88,83.71,147-83-30.57-219.09-30.57-219.09s53.86-371.2-310-234.31"/><path class="cls-2" d="M2305.58,1796.59a239.73,239.73,0,0,1-83.86-15.07c-47.72-18-81.81-50.4-96-91.17-10.08-29-13.49-50.88-16.22-68.46-1.45-9.37-2.71-17.46-4.68-24.35-24.67-86-71.6-81.24-142.66-74.08-27.62,2.77-58.92,5.94-93.73,4.25a2.5,2.5,0,0,1-2.38-2.62,2.48,2.48,0,0,1,2.62-2.37c34.44,1.63,65.55-1.48,93-4.24,70.93-7.14,122.15-12.28,148,77.68,2.06,7.19,3.34,15.43,4.82,25,2.7,17.38,6.07,39,16,67.59,13.68,39.35,46.72,70.65,93,88.14,57.34,21.65,125.76,19.32,170.26-5.79,35.65-20.12,54.76-45.1,56.81-74.26,4.84-68.93-86.74-140-87.67-140.67a2.47,2.47,0,0,1-1-2.33c.23-1.6,22.14-160.47-63.76-229.57-52.51-42.25-134.24-42.94-242.91-2a2.5,2.5,0,0,1-1.76-4.68c110.45-41.56,193.82-40.6,247.81,2.84,83.64,67.3,67.79,216.36,65.76,232.72,11.24,8.86,93.25,76,88.47,144.09-2.17,30.94-22.14,57.27-59.34,78.26C2371.3,1789.46,2339.16,1796.59,2305.58,1796.59Z"/><path class="cls-1" d="M2395,1773.25c-60.45,34.09-167.5,27-228.56-27.23-17.05-15.09-30.49-33.9-38.34-56.47-15.5-44.65-15.17-72.88-20.84-92.71-35-121.77-114-65.64-238.7-71.64l185.83-205.36c101.54-38.19,170.55-36.84,217.3-15,120.72,56.4,92.75,249.33,92.75,249.33S2542,1690.26,2395,1773.25Z"/><path class="cls-2" d="M2305,1796.29c-49.29,0-102.55-14.94-140.23-48.4-18.25-16.16-31.38-35.51-39-57.52-10.08-29-13.48-50.91-16.2-68.5-1.46-9.37-2.71-17.45-4.68-24.34-24.67-85.93-71.61-81.21-142.65-74.08-27.63,2.78-59,5.93-93.77,4.24a2.49,2.49,0,0,1-1.73-4.17l185.83-205.36a2.58,2.58,0,0,1,1-.66c92.33-34.72,166.09-39.75,219.24-15,115.43,53.94,96.58,232.49,94.35,250.5,11.24,8.86,93.24,76,88.46,144.11-2.17,30.94-22.13,57.27-59.33,78.27h0C2372.28,1788.92,2339.62,1796.29,2305,1796.29ZM2012.21,1515c45,0,78.23,14.28,97.43,81.19,2.06,7.19,3.34,15.42,4.82,24.95,2.69,17.39,6.05,39,16,67.63,7.37,21.19,20,39.84,37.64,55.42,62.57,55.57,169.15,58.8,225.67,26.92h0c35.65-20.12,54.75-45.1,56.8-74.26,4.84-68.94-86.73-140-87.65-140.68a2.5,2.5,0,0,1-1-2.34c.28-1.91,26.31-191.74-91.33-246.7-51.78-24.17-124-19.16-214.79,14.88l-181.84,201c32.35,1.1,61.67-1.83,87.71-4.44C1979.85,1516.65,1996.73,1515,2012.21,1515ZM2395,1773.25h0Z"/><g class="cls-3"><path class="cls-4" d="M2432.31,1744.26c.25-115.44-86.22-157.14-86.22-157.14s28-192.93-92.74-249.33c-46.75-21.82-115.77-23.17-217.3,15l-156.32,172.73c-3.68,0-7.43-.16-11.19-.34l185.83-205.36c101.54-38.19,170.55-36.84,217.3-15,120.72,56.4,92.75,249.33,92.75,249.33S2505.15,1662,2432.31,1744.26Z"/></g><path class="cls-2" d="M2305.45,1809a252.11,252.11,0,0,1-88.16-15.8c-51.24-19.36-88-54.44-103.38-98.77-10.46-30.07-14.11-53.53-16.77-70.66-1.39-9-2.59-16.68-4.35-22.82-21.77-75.9-57.72-72.27-129.36-65.08-28.06,2.83-59.84,6-95.6,4.3a15,15,0,1,1,1.45-30c33.5,1.61,64.12-1.47,91.14-4.18,71.11-7.17,132.55-13.35,161.25,86.68,2.27,8,3.61,16.54,5.15,26.49,2.63,16.89,5.89,37.9,15.46,65.4,12.45,35.78,42.86,64.38,85.63,80.53,53.2,20.11,118.87,18.06,159.68-5,31.74-17.91,48.72-39.5,50.47-64.18,4.4-62.13-81.93-129.23-82.8-129.9a15,15,0,0,1-5.72-14.08c.22-1.52,21-153.54-59.28-218-48.82-39.22-126.4-39.24-230.59,0a15,15,0,1,1-10.58-28.12c114.89-43.23,202.39-41.6,260.07,4.81C2391.72,1377,2384,1512,2380.3,1547.7c22.55,18.91,92.44,83.22,87.73,150.33-2.49,35.39-24.58,65.09-65.68,88.28C2375.65,1801.39,2341.26,1809,2305.45,1809Z"/><path class="cls-2" d="M2337.33,1598c2.18-8.74,4.46-16.49,6.15-24.09.88-3.79,1.5-7.54,2.46-11.11a54.48,54.48,0,0,1,3.65-10.57l.24-.48a10.25,10.25,0,0,1,19.39,4.28,35.26,35.26,0,0,1-2.64,13.56,54.24,54.24,0,0,1-6.8,12,60.77,60.77,0,0,1-20.2,18.15,1.58,1.58,0,0,1-2.12-.65A1.62,1.62,0,0,1,2337.33,1598Z"/><g class="cls-5"><path class="cls-2" d="M2281.85,1592.79S2258.6,1662.4,2166.42,1746c-17.05-15.09-30.49-33.9-38.34-56.47-15.5-44.65-15.17-72.88-20.84-92.71-35-121.77-114-65.64-238.7-71.64l185.83-205.36q13.34-5,25.92-9.13c107-35,216.63,44.93,215.29,157.51C2294.73,1539.64,2281.85,1592.79,2281.85,1592.79Z"/></g><path class="cls-1" d="M2137.73,1675s-139.15,146.48-498.91,121c-222.48-15.77-462.35-194.28-462.35-194.28l426.75-406.13s65.75-35.52,154.25-65.26c26.1-8.83,54.22-17.09,83.17-23.85,59.67-13.85,123.09-21.1,180.58-12.5,38.34,5.74,74.08,18.55,104.31,41.12,93.23,69.65,125.34,153.23,126.8,233.63C2255.3,1528.24,2137.73,1675,2137.73,1675Z"/><path class="cls-2" d="M1720,1801.48c-25.78,0-52.87-.93-81.33-2.94-220.66-15.65-461.25-193-463.66-194.77a2.49,2.49,0,0,1-1-1.86,2.52,2.52,0,0,1,.77-2l426.75-406.14a2.45,2.45,0,0,1,.53-.38c.66-.36,67-36,154.65-65.43,28.15-9.52,56.21-17.56,83.39-23.91,69-16,130.06-20.24,181.52-12.54,41.29,6.19,76.77,20.18,105.44,41.59,83.08,62.07,126.08,141.33,127.8,235.58,3,158.54-114,306.38-115.15,307.86l-.14.16C2138.26,1678.09,2017.3,1801.48,1720,1801.48Zm-539.6-200c25.68,18.54,251.23,177.33,458.62,192,351.36,24.87,493-116.26,496.86-120.18,3.41-4.31,116.87-149.42,114-304.56-1.68-92.62-44-170.57-125.8-231.67-28-20.9-62.72-34.58-103.18-40.65-50.83-7.59-111.27-3.41-179.64,12.47-27,6.31-54.93,14.31-82.94,23.78-84.33,28.34-148.71,62.33-153.57,64.93ZM2137.73,1675h0Z"/><g class="cls-5"><path class="cls-2" d="M2137.73,1675s-139.15,146.48-498.91,121c-222.48-15.77-462.35-194.28-462.35-194.28l54.34-51.71c92.41,33.46,262.47,87.94,414.5,98.72,359.76,25.46,492.42-114.34,492.42-114.34s114.68-48.67,107-227.47a290.6,290.6,0,0,1,7.62,61.81C2255.3,1528.24,2137.73,1675,2137.73,1675Z"/></g><path class="cls-4" d="M2252.33,1368.77c-61.58,75.62-180.61,98.26-287.17,48.51-122.75-57.3-182.49-189-133.42-294.08a179.52,179.52,0,0,1,8.9-16.68c99.47-23.09,209.3-27.82,284.89,28.62C2218.76,1204.79,2250.87,1288.37,2252.33,1368.77Z"/><path class="cls-2" d="M1721.7,1814.06c-26.59,0-54.52-1-84-3-224.27-15.88-460.29-189.83-470.23-197.23a15,15,0,0,1-1.39-22.92l426.76-406.11a14.71,14.71,0,0,1,3.21-2.33c14.64-7.92,360.57-192.2,538.44-59.33,75.86,56.67,119.72,127.65,130.36,211,22.45,175.81-109.77,343.27-115.41,350.32q-.41.49-.84,1C2143.24,1691,2022.56,1814.06,1721.7,1814.06Zm-521.65-214c54.92,38,255.17,167.93,439.81,181,337.75,23.91,478-107.56,486.62-116,8.44-10.85,128.87-169.13,108.6-327.3-9.6-74.88-49.48-139-118.53-190.58-156.55-116.94-478,46.94-504.46,60.79Z"/><path class="cls-6" d="M598.32,1543.44s-311.87,151.23-311.45,182.07,398.7-115.35,398.7-115.35"/><path class="cls-2" d="M296.8,1732.06c-4.65,0-8-.6-9.86-1.88a5.58,5.58,0,0,1-2.57-4.63c-.43-31.53,280.79-168.81,312.86-184.36a2.5,2.5,0,0,1,2.18,4.5c-124.79,60.51-310.33,158.32-310,179.79,0,.15,0,.31.4.58,1.4,1,4,1.42,7.61,1.42,44.74,0,249.91-69.22,387.33-119.67a2.5,2.5,0,0,1,1.72,4.7C651,1625.51,358.85,1732.06,296.8,1732.06Z"/><path class="cls-7" d="M685.57,1610.14l-34.39-26.28-52.85-40.45S443,1618.7,351.72,1673.91c-38,23-65,42.55-64.85,51.6C287.32,1756.35,685.57,1610.14,685.57,1610.14Z"/><g class="cls-5"><path class="cls-2" d="M685.56,1610.13s-398.25,146.22-398.7,115.39c-.11-8.45,23.47-26.13,57.64-47.2C412,1665.63,565,1613.06,650,1583l1.2.9Z"/></g><path class="cls-2" d="M296.27,1744.86c-10.09,0-13.5-2.35-16.43-4.37a18,18,0,0,1-8-14.77c-.17-12-.4-28.42,163.49-116.06,77.29-41.32,155.63-79.35,156.42-79.73a15,15,0,0,1,13.1,27c-115,55.75-237.84,121.54-284.69,155,62.64-12.65,218.56-63.91,360.21-115.91a15,15,0,1,1,10.35,28.2c-.93.34-94,34.48-189.16,66C367.12,1734.69,317.25,1744.86,296.27,1744.86Z"/><path class="cls-7" d="M2566,1833.57s276.73,285.61,308.39,278-273.31-383.3-273.31-383.3"/><g class="cls-5"><path class="cls-2" d="M2601.06,1728.21,2566,1833.58s276.69,285.59,308.37,278c9.21-2.21-10-35.45-41.8-81.43-92-81.89-222.28-216.4-222.28-216.4l17.45-52.42C2611.28,1740.78,2601.06,1728.21,2601.06,1728.21Z"/></g><path class="cls-2" d="M2872.18,2127c-13.45,0-44-15.2-174.3-140.73-72.49-69.82-142-141.5-142.69-142.22a15,15,0,1,1,21.57-20.89c102.7,106,218.23,217,271.34,257.67-38.25-62.61-150.75-210.13-258.7-343.09a15,15,0,0,1,23.32-18.94c.72.88,72.3,89.12,141.73,179.87,145.06,189.6,139.94,204.75,136.2,215.82a17.82,17.82,0,0,1-12.76,11.68A22.75,22.75,0,0,1,2872.18,2127Z"/><path class="cls-7" d="M2842.11,1700.74a8.2,8.2,0,0,1-.73,13.87c-1021.53,553.5-2288.08-97.17-2510.3-295.51a51.7,51.7,0,0,1-17.43-38.73c0-30.54,25.06-52,51.94-52a51,51,0,0,1,28.89,9.05C733.58,1568.06,1817,1981,2845.36,1458.14c-22.81,12.76-39.84,62.69-39.84,122.33C2805.52,1637.22,2821,1685.17,2842.11,1700.74Z"/><g class="cls-8"><path class="cls-4" d="M2811.57,1521.42C1793.41,2018.42,729.88,1612,394.5,1383.87a51,51,0,0,0-28.89-9,52.51,52.51,0,0,0-46.52,28.63,52.33,52.33,0,0,1-5.42-23.11c0-30.54,25.06-52,51.94-52a51,51,0,0,1,28.89,9C733.6,1568,1817,1981,2845.38,1458.12,2830.71,1466.31,2818.45,1489.82,2811.57,1521.42Z"/></g><g class="cls-5"><path class="cls-2" d="M331.1,1389.09c221.49,197.71,1480.71,844.84,2500.53,300.66-9.55-13.23-17.19-33.7-21.67-58.41-1325.7,519.09-2342.58-162.66-2480.35-243.72C330.11,1388.1,330.57,1388.62,331.1,1389.09Z"/></g><g class="cls-9"><path class="cls-2" d="M522.6,1452.7c20.48,13.48,42,25.78,63.58,37.65s43.62,23.08,65.82,33.87,44.58,21.18,67.2,31c22.54,10.06,45.34,19.51,68.21,28.79,91.65,36.69,185.69,67.19,280.95,93a2859.4,2859.4,0,0,0,289.52,61.42c97.41,15.57,195.89,24.09,294.5,28.41,197.27,8.22,395.61-3,590.68-34.29,97.48-15.83,194.18-37.06,288.46-66,47.06-14.66,93.54-31.09,138.77-50.22q33.84-14.52,66.43-31.43a655.18,655.18,0,0,0,62.94-37l.05,0a12.51,12.51,0,0,1,13.93,20.79l-.71.44c-43.77,25.26-89.42,45.9-136,63.51-46.5,17.92-93.92,33-141.76,46.23-95.68,26.49-192.93,46.31-290.77,61.72q-73.39,11.6-147.28,19.52c-24.63,2.62-49.27,5-74,7.06q-37,3.3-74.07,5.69c-98.84,6.38-198,8.34-297.08,5.21a2441,2441,0,0,1-296.08-27q-73.47-11.79-146.13-27.56c-48.45-10.5-96.66-22.08-144.46-35.2a2417.29,2417.29,0,0,1-281.44-95.59c-45.82-18.91-91-39.31-135.23-61.76q-33.18-16.79-65.58-35c-21.55-12.29-42.84-24.89-63.46-38.92a2.64,2.64,0,0,1,2.93-4.39Z"/></g><path class="cls-2" d="M1933.88,1947.37c-241.34,0-466-37.64-651-84-457-114.48-837.5-322.15-961.76-433a66.94,66.94,0,0,1,44.51-117A66.09,66.09,0,0,1,402.94,1325c170.35,115.86,524.19,274.57,960.75,340.48,366.06,55.27,919.08,61.85,1474.86-220.74a15,15,0,0,1,14.14,26.49c-15.8,8.85-32.15,52.12-32.15,109.22,0,55.7,15.7,97.31,30.47,108.18a23.38,23.38,0,0,1,9.54,20.51,22.91,22.91,0,0,1-12,18.66C2546.28,1891.58,2227.68,1947.37,1933.88,1947.37Zm-1568.29-604c-17.76,0-36.92,14.14-36.92,37A36.77,36.77,0,0,0,341,1407.86c95.88,85.57,454,302.32,949.1,426.36,403.06,101,995.72,160.23,1535.46-128.18-21.57-22.93-35.1-70.47-35.1-125.58,0-31.89,4.58-61.22,12.6-84.72-227.17,108.83-470.79,179.91-725,211.46-232.87,28.89-474.74,24.86-718.9-12C917.66,1628.52,559,1467.49,386,1349.84A35.74,35.74,0,0,0,365.59,1343.39ZM2833.2,1712.84h0Zm0,0,0,0h0Z"/><path class="cls-10" d="M2908.45,1580.47c0,69.37-23,125.59-51.49,125.59s-51.44-56.22-51.44-125.59c0-59.64,17-109.57,39.84-122.33l2.31-1.21a.18.18,0,0,1,.15,0,21.86,21.86,0,0,1,9.14-2C2885.4,1454.87,2908.45,1511.09,2908.45,1580.47Z"/><g class="cls-9"><path class="cls-2" d="M2908.47,1580.45c0,69.38-23,125.59-51.49,125.59s-51.44-56.21-51.44-125.59a297.46,297.46,0,0,1,2.31-37.48c6.58,51.09,26.07,88.12,49.13,88.12s42.6-37,49.18-88.12A296.87,296.87,0,0,1,2908.47,1580.45Z"/></g><path class="cls-2" d="M2857,1721.08c-43.63,0-66.46-70.74-66.46-140.62,0-65.1,19.1-119.52,47.52-135.43l2.61-1.36h0q.66-.35,1.35-.63a36.59,36.59,0,0,1,15-3.19c43.67,0,66.51,70.74,66.51,140.61S2900.63,1721.08,2857,1721.08ZM2854,1470.57l-1.59.82c-15.53,8.7-31.88,52-31.88,109.07,0,66.48,21.92,110.58,36.42,110.58s36.47-44.1,36.47-110.58-21.95-110.57-36.47-110.57a6.73,6.73,0,0,0-2.89.65Z"/><g class="cls-5"><path class="cls-2" d="M2403.91,1829.78a169.34,169.34,0,0,0,28-1,232.83,232.83,0,0,0,27.86-4.72,248,248,0,0,0,100.59-49,267.3,267.3,0,0,0,20.9-18.74l10.3-10.13c3.54-3.35,7.19-6.58,10.87-9.79,29.81-25.32,64.66-43.92,100.84-58.16a495,495,0,0,1,55.61-17.84,454.91,454.91,0,0,1,58-11.33,12.52,12.52,0,1,1,3.13,24.84,11.32,11.32,0,0,1-1.16.09l-.37,0c-8.67.27-18.24,1.16-27.38,2.3s-18.46,2.59-27.64,4.3a442.1,442.1,0,0,0-54.3,13.94c-35.61,11.41-69.54,28.34-99.1,51.14-3.65,2.91-7.27,5.85-10.8,8.91l-10.52,9.51a275,275,0,0,1-22.46,18.58,291,291,0,0,1-24.3,16q-12.6,7.27-25.86,13.23a266.11,266.11,0,0,1-55,18.06c-18.92,4-38,6.36-57.69,5.72a3,3,0,0,1,.2-6h.25Z"/><path class="cls-2" d="M1344,1793.43q83.87,17.27,168.47,29.47l42.35,5.56,42.46,4.64c14.13,1.76,28.34,2.67,42.5,4.05s28.37,2.34,42.57,3.23,28.39,1.92,42.61,2.4,28.42,1.42,42.64,1.57,28.43.89,42.66.9,28.44.21,42.66.08q85.32-.74,170.37-8.15t169.09-22a1653.23,1653.23,0,0,0,166.21-37.49c27.28-7.84,54.35-16.37,80.93-26.13,13.31-4.83,26.41-10.14,39.34-15.74,6.45-2.8,12.81-5.79,19.11-8.85l9.32-4.74,9.67-5.09c26-13.14,53.83-23.37,82.74-28.49,28.71-5,59.06-6.2,86.94,4.22a1.26,1.26,0,0,1-.42,2.44h-.11c-7.12.15-14.24.77-21.23,1.1-7,.54-14,1.28-20.92,2a385.74,385.74,0,0,0-41.23,6.09,339.56,339.56,0,0,0-78.91,26.49l-19.14,9.65c-6.55,3.16-13.12,6.22-19.77,9.08-13.27,5.71-26.66,11.09-40.19,16-27,9.95-54.37,18.72-81.93,26.73a1668.86,1668.86,0,0,1-167.66,38.41q-84.66,15.09-170.42,22.56c-57.09,5.14-114.41,7.52-171.71,7.56-28.65-.08-57.3-.44-85.92-1.66-14.32-.4-28.6-1.54-42.9-2.33s-28.57-1.94-42.83-3.18c-114.18-9.13-227.37-29-337.93-57.86a1.23,1.23,0,0,1-.89-1.52A1.26,1.26,0,0,1,1344,1793.43Z"/></g><g class="cls-9"><path class="cls-2" d="M313.67,1380.35h0c0,.93.09,1.84.14,2.76C313.76,1382.19,313.67,1381.28,313.67,1380.35Z"/></g><g class="cls-9"><path class="cls-2" d="M317,1398.37a51.81,51.81,0,0,1-2.87-11.63A51.81,51.81,0,0,0,317,1398.37Z"/></g><g class="cls-9"><path class="cls-2" d="M313.91,1380a.39.39,0,0,0-.24.38A.39.39,0,0,1,313.91,1380Z"/></g><g class="cls-9"><path class="cls-2" d="M326.53,1414.44a52.33,52.33,0,0,1-5.83-8A52.33,52.33,0,0,0,326.53,1414.44Z"/></g><g class="cls-9"><path class="cls-2" d="M584.06,1581.58q-19.14-10.14-37.16-20.08Q564.93,1571.45,584.06,1581.58Z"/></g><g class="cls-9"><path class="cls-2" d="M530,1552.1q-22.56-12.69-43.18-25Q507.47,1539.4,530,1552.1Z"/></g><g class="cls-9"><path class="cls-2" d="M627.4,1604q-14-7.08-27.44-14.09Q613.43,1596.94,627.4,1604Z"/></g><g class="cls-9"><path class="cls-2" d="M314.6,1379.93a1.54,1.54,0,0,0-.49,0A1.54,1.54,0,0,1,314.6,1379.93Z"/></g><g class="cls-9"><path class="cls-2" d="M436.93,1496.39c-37.3-23.9-67.81-45.73-90.71-64.45C369.12,1450.66,399.63,1472.49,436.93,1496.39Z"/></g><g class="cls-9"><path class="cls-2" d="M2836.72,1695.93s0,0,0,0S2836.71,1695.92,2836.72,1695.93Z"/></g><g class="cls-9"><path class="cls-2" d="M2839.17,1698.29l.22.22Z"/></g><g class="cls-9"><path class="cls-2" d="M2843.7,1702.23l-.07-.06Z"/></g><g class="cls-9"><path class="cls-2" d="M320.21,1382.32c.63.32,1.32.7,2,1.09C321.53,1383,320.84,1382.64,320.21,1382.32Z"/></g><g class="cls-9"><path class="cls-2" d="M318,1381.22l1.46.73Z"/></g><g class="cls-9"><path class="cls-2" d="M322.82,1383.72q2.93,1.62,6.76,3.88Q325.74,1385.34,322.82,1383.72Z"/></g><g class="cls-9"><path class="cls-2" d="M316.3,1380.46l1.07.45Z"/></g><g class="cls-9"><path class="cls-2" d="M315,1380a7,7,0,0,1,.77.23A7,7,0,0,0,315,1380Z"/></g><g class="cls-9"><path class="cls-2" d="M331.1,1419.09a53.47,53.47,0,0,1-3.94-3.88,53.47,53.47,0,0,0,3.94,3.88c2.27,2,4.68,4.11,7.17,6.23C335.78,1423.2,333.37,1421.11,331.1,1419.09Z"/></g><g class="cls-9"><path class="cls-2" d="M1325.69,1858.31q-19.7-4.65-39.21-9.53Q1306,1853.66,1325.69,1858.31Z"/></g><g class="cls-9"><path class="cls-2" d="M1467.89,1888.32q-23.19-4.29-46.13-8.92Q1444.7,1884,1467.89,1888.32Z"/></g><g class="cls-9"><path class="cls-2" d="M1467.89,1888.32q21.18,3.93,42.57,7.54Q1489.09,1892.23,1467.89,1888.32Z"/></g><g class="cls-9"><path class="cls-2" d="M1680.81,1919.25q-58.68-6.13-116.28-14.78Q1622.1,1913.07,1680.81,1919.25Z"/></g><g class="cls-9"><path class="cls-2" d="M778.13,1674.93c-53.72-23.5-103.92-47.25-150.06-70.58C674.21,1627.68,724.41,1651.43,778.13,1674.93Z"/></g><g class="cls-9"><path class="cls-2" d="M1850.28,1931.23q-60-2.16-119.18-7.22Q1790.28,1929,1850.28,1931.23Z"/></g><g class="cls-9"><path class="cls-2" d="M1680.81,1919.25q23,2.41,46.15,4.4Q1703.82,1921.65,1680.81,1919.25Z"/></g><g class="cls-9"><path class="cls-2" d="M1900,1932.5q-24.08-.36-48.06-1.21Q1876,1932.13,1900,1932.5Z"/></g><g class="cls-9"><path class="cls-2" d="M2841.36,1714.58c-303.19,164.29-628,222.49-940.61,217.93,312.64,4.56,637.42-53.64,940.61-217.93a7.77,7.77,0,0,0,3.93-5A7.77,7.77,0,0,1,2841.36,1714.58Z"/></g><g class="cls-9"><path class="cls-2" d="M1394,1873.64q-29.61-6.29-58.77-13.08Q1364.4,1867.36,1394,1873.64Z"/></g><g class="cls-9"><path class="cls-2" d="M900.88,1725.65q-15.46-6-30.64-12.11Q885.42,1719.63,900.88,1725.65Z"/></g><g class="cls-9"><path class="cls-2" d="M1193.06,1823.81q-47.24-13.39-92.83-27.86Q1145.81,1810.38,1193.06,1823.81Z"/></g><g class="cls-9"><path class="cls-2" d="M844.91,1703.26l-6.34-2.61Z"/></g><g class="cls-9"><path class="cls-2" d="M808.75,1688.15l-5.18-2.21Z"/></g><g class="cls-9"><path class="cls-2" d="M966,1750.2q-18.21-6.66-36.07-13.41Q947.75,1743.54,966,1750.2Z"/></g><g class="cls-9"><path class="cls-2" d="M1087.05,1791.74q-13.87-4.46-27.59-9Q1073.17,1787.29,1087.05,1791.74Z"/></g><g class="cls-9"><path class="cls-2" d="M1042.45,1777.05q-9.75-3.29-19.42-6.61Q1032.69,1773.76,1042.45,1777.05Z"/></g><g class="cls-9"><path class="cls-2" d="M1005.54,1764.36q-12.79-4.48-25.42-9Q992.75,1759.88,1005.54,1764.36Z"/></g><path class="cls-11" d="M149.29,1756.36c85.71,18.64,176.13-62.53,176.13-62.53s-48.55-111.37-134.27-130S15,1626.34,15,1626.34,63.57,1737.72,149.29,1756.36Z"/><path class="cls-2" d="M175.5,1761.6a125.91,125.91,0,0,1-26.75-2.8c-86-18.69-135.53-130.33-136-131.46a2.5,2.5,0,0,1,.62-2.86c.92-.82,92.37-81.78,178.33-63.1s135.54,130.33,136,131.45a2.5,2.5,0,0,1-.62,2.86C326.27,1696.43,252.67,1761.6,175.5,1761.6Zm-25.68-7.68c77.77,16.88,160.88-50.81,172.54-60.75-6.48-13.88-54-110-131.74-126.91S29.74,1617.07,18.07,1627c6.49,13.88,54,110,131.75,126.91Z"/><g class="cls-8"><path class="cls-4" d="M65.55,1631.49s64.85-58.19,136.76-64.66a109.66,109.66,0,0,0-11.16-3C105.43,1545.17,15,1626.36,15,1626.36s48.53,111.39,134.25,130a130.36,130.36,0,0,0,39.42,2.19C109.93,1733.32,65.55,1631.49,65.55,1631.49Z"/></g><g class="cls-5"><path class="cls-2" d="M325.44,1693.84s-48.58-111.35-134.29-130c-31.92-7-64.46-.08-92.72,11.36a114.87,114.87,0,0,1,16.16,2.35c85.72,18.62,134.25,130,134.25,130s-35.65,32-83.48,51.2C246,1765.17,325.44,1693.84,325.44,1693.84Z"/></g><path class="cls-2" d="M175.88,1774.17a140.23,140.23,0,0,1-29.79-3.13h0C53.93,1751,3.36,1637.18,1.25,1632.34A15,15,0,0,1,5,1615.17c3.92-3.53,97.18-86.05,189.35-66S337.08,1683,339.19,1687.83a15,15,0,0,1-3.74,17.18C332,1708.16,257.36,1774.17,175.88,1774.17Zm-23.4-32.49c62.67,13.64,130.58-33.45,154.23-51.91-13.83-26.61-56.07-97.64-118.75-111.27s-130.59,33.44-154.23,51.91c13.83,26.61,56.07,97.64,118.75,111.27Z"/><path class="cls-2" d="M151.79,1652.57l168.52,24.78a15.06,15.06,0,1,1-4.39,29.79,18.68,18.68,0,0,1-2-.43l-163.59-47.43a3.44,3.44,0,0,1,1.46-6.71Z"/><path class="cls-11" d="M599.44,1843.06c11.47-87-76.89-170.35-76.89-170.35s-107,57.6-118.46,144.56S481,1987.62,481,1987.62,588,1930,599.44,1843.06Z"/><path class="cls-2" d="M481,1990.12a2.51,2.51,0,0,1-1.72-.68c-.89-.84-89.16-85.27-77.65-172.5s118.67-145.85,119.75-146.44a2.51,2.51,0,0,1,2.9.39c.9.84,89.17,85.27,77.65,172.49s-118.66,145.86-119.75,146.45A2.45,2.45,0,0,1,481,1990.12Zm41.16-314.32c-13.3,7.61-105.15,62.88-115.57,141.8s63.95,156.12,74.82,166.93c13.3-7.61,105.15-62.88,115.57-141.8h0C607.38,1763.78,533,1686.6,522.14,1675.8Z"/><g class="cls-8"><path class="cls-4" d="M599.43,1843a122.2,122.2,0,0,0,1-19.06c-29.63,66.91-108.27,109.22-108.27,109.22s-75.86-71.59-77.87-151.27a126.88,126.88,0,0,0-10.2,35.35c-11.47,87,76.89,170.34,76.89,170.34S588,1930,599.43,1843Z"/></g><g class="cls-5"><path class="cls-2" d="M565,1917.43c16.93-21.09,30.7-46.14,34.41-74.39,11.47-87-76.89-170.33-76.89-170.33s-107,57.61-118.47,144.57a116.59,116.59,0,0,0-1,16.87c35.21-43.89,84.06-70.19,84.06-70.19S564.38,1836.85,565,1917.43Z"/></g><path class="cls-2" d="M481,2002.64a15.05,15.05,0,0,1-10.32-4.09c-3.84-3.62-93.81-89.74-81.47-183.24S510.78,1662,515.43,1659.48a15,15,0,0,1,17.43,2.3c3.83,3.62,93.81,89.74,81.46,183.25h0C602,1938.53,492.75,1998.35,488.1,2000.85A15.06,15.06,0,0,1,481,2002.64Zm39-311c-25.37,16-92.66,64-101.06,127.55s44.14,127.37,64.51,149.4c25.37-16,92.66-64,101-127.55h0C592.94,1777.51,540.4,1713.72,520,1691.69Z"/><path class="cls-2" d="M495.79,1849.15l10.76-170a15.05,15.05,0,1,1,30,1.91,16.64,16.64,0,0,1-.26,2l-33.73,167a3.44,3.44,0,0,1-6.81-.9Z"/><path class="cls-11" d="M2906.31,1834.59c-75.56,44.42-86.91,165.29-86.91,165.29s111.14,48.85,186.7,4.43S3093,1839,3093,1839,2981.86,1790.16,2906.31,1834.59Z"/><path class="cls-2" d="M2929.57,2025.31c-57.57,0-110.41-22.8-111.18-23.14a2.49,2.49,0,0,1-1.48-2.52c.11-1.22,12.35-122.66,88.13-167.22s187.85,3.8,189,4.29a2.5,2.5,0,0,1,1.49,2.52c-.12,1.22-12.36,122.67-88.14,167.22C2983.5,2020.49,2956,2025.31,2929.57,2025.31Zm-107.48-27c14.18,5.8,114.18,44.16,182.74,3.85s83.66-146.35,85.48-161.56c-14.17-5.79-114.18-44.16-182.74-3.85h0C2839,1877.05,2823.91,1983.1,2822.09,1998.3Zm84.22-163.71h0Z"/><g class="cls-8"><path class="cls-4" d="M2896.31,1839.59a121.52,121.52,0,0,0-15.32,10.76c73.74-27.29,167,13.66,167,13.66s-9.82,104-71.59,154.54a123.88,123.88,0,0,0,19.68-9.24C3071.65,1964.89,3083,1844,3083,1844S2971.86,1795.16,2896.31,1839.59Z"/></g><g class="cls-5"><path class="cls-2" d="M2906.28,1834.61c-75.51,44.4-86.87,165.29-86.87,165.29s111.11,48.83,186.68,4.42a130,130,0,0,0,31.34-26.09c-60.36,2.33-117.81-22.88-117.81-22.88s8-85.63,55.65-139.24C2951.61,1817,2927.54,1822.09,2906.28,1834.61Z"/></g><path class="cls-2" d="M2929.12,2038c-59.26,0-112.51-23-115.77-24.4a15,15,0,0,1-8.91-15.15c.5-5.25,13-129.07,94.26-176.84,64.92-38.18,151.63-14.09,185.9-2a32.47,32.47,0,0,1,21.21,36.08c-6.06,35.84-27.16,123.32-92.1,161.5C2987.37,2032.75,2957.55,2038,2929.12,2038Zm-93.24-47.86c28.18,10.16,107.35,33.67,162.6,1.19,54.06-31.78,72.35-108.92,77.71-140.61a2.44,2.44,0,0,0-1.62-2.75c-30.3-10.73-106.6-32.25-160.65-.46h0C2858.51,1880.11,2840.67,1960.61,2835.88,1990.17Zm70.43-155.58h0Z"/><path class="cls-2" d="M2974.83,1912.48l-140.5,96a15.06,15.06,0,0,1-17-24.86,18.61,18.61,0,0,1,1.77-1l152.25-76.07a3.44,3.44,0,0,1,3.48,5.92Z"/><path class="cls-1" d="M1229.84,1512.47c0,84.14-112.54,433.67-8.54,499.33,127,80.16,258.06-102.44,251.35-400.84"/><path class="cls-2" d="M1281.88,2033.2c-20.7,0-41.55-6.44-61.92-19.29-77-48.64-38.9-242.9-11.06-384.74,9.9-50.41,18.44-94,18.44-116.7a2.5,2.5,0,0,1,5,0c0,23.23-8.59,67-18.53,117.66-26,132.51-65.31,332.74,8.82,379.55,36.5,23,74.64,24.56,110.28,4.39,86.41-48.91,141.56-210.89,137.24-403a2.5,2.5,0,0,1,2.44-2.56h.06a2.5,2.5,0,0,1,2.5,2.44c4.36,194-51.81,357.73-139.78,407.52C1318,2028.28,1300,2033.2,1281.88,2033.2Z"/><g class="cls-5"><path class="cls-2" d="M1221.31,2011.8c-32.86-20.77-44.08-69.81-44.12-129.85,6.79,14.68,16,26.36,28.27,34.1,110.83,70,224.83-60.34,247.53-293.16a14.35,14.35,0,0,1,19.67-11.93h0C1479.35,1909.36,1348.26,2092,1221.31,2011.8Z"/></g><path class="cls-2" d="M1244.86,1512.47c-.13,12.88-1.72,24.28-3.35,35.78s-3.66,22.66-5.71,33.83c-4.11,22.32-8.54,44.41-12.85,66.49-8.62,44.11-16.86,88.12-22.84,132.23-5.8,44-10,88.48-6.74,131.47,1.76,21.3,5.46,42.53,13.83,60.17a66.08,66.08,0,0,0,16.12,22.13l2.5,2.09,2.66,1.84c1.78,1.25,4.27,2.46,6.36,3.71a101.09,101.09,0,0,0,13.4,6.55c9.15,3.53,18.58,6.19,28.12,6.56,4.76.66,9.51-.06,14.27-.11,4.69-1,9.47-1.26,14.06-2.9,18.68-5,35.67-16.92,50.38-31.3s27.08-32,37.59-50.67a385.81,385.81,0,0,0,26.84-58.94,652.19,652.19,0,0,0,19.42-62.65q8-32,13.61-64.75c7.49-43.67,11.7-88.06,15.11-132.93v0a5,5,0,0,1,10-.18,663.61,663.61,0,0,1,1.17,136.64L1477,1764.6c-.64,5.7-1.63,11.36-2.44,17.05-1.57,11.38-3.8,22.69-6.07,34a517.57,517.57,0,0,1-19,66.78c-8,21.82-17.5,43.31-29.47,63.68s-26.11,39.78-43.63,56.75c-17.46,16.81-38.59,31.55-63.61,38.39-6.1,2.06-12.62,2.71-19,3.84-6.48.24-13,1-19.45.21-13-.59-25.57-4.08-37.34-8.67a129.12,129.12,0,0,1-16.92-8.24c-2.75-1.62-5.34-2.87-8.2-4.82l-4.27-3-4-3.3a96,96,0,0,1-23.57-31.91c-10.89-23.25-14.62-47.29-16.65-70.68-3.47-47,1-92.73,6.91-137.9,6.13-45.14,14.48-89.7,23.13-134,4.32-22.13,8.74-44.2,12.79-66.16,2-11,3.94-21.93,5.53-32.77s3-21.76,3-31.41v-.26a15,15,0,1,1,30,.21Z"/><g class="cls-5"><path class="cls-2" d="M2062.3,1220.15c-20.62,70.21-130.6,99.16-211.59,62.93-66.58-29.78-74.84-106.49-75.1-140.17a13.4,13.4,0,0,0-16.07-13c-.68.15-1.35.27-2.07.42,26.1-8.83,54.22-17.09,83.17-23.85,59.67-13.85,123.09-21.1,180.58-12.5C2056.93,1133.82,2073.52,1181.85,2062.3,1220.15Z"/></g><path class="cls-1" d="M1804.54,1113a10.9,10.9,0,0,1,13.1,10.55c.23,27.45,6.95,89.92,61.17,114.18,66,29.51,155.56,5.92,172.35-51.28,25.58-87.15-125.9-236.3-300.27-127.91-51.84,32.22-67.77,85.69-67.77,85.69s48.66-15.17,70.17-20.21C1769.87,1120.12,1791,1115.73,1804.54,1113Z"/><path class="cls-2" d="M1940.77,1252.9c-21.82,0-43.73-4.3-63-12.91-55.89-25-62.43-89.76-62.65-116.44a8.38,8.38,0,0,0-10.1-8.11h0c-11.68,2.36-33.86,6.94-51.18,11-21.18,5-69.51,20-70,20.16a2.51,2.51,0,0,1-2.5-.61,2.47,2.47,0,0,1-.64-2.49c.16-.54,16.8-54.75,68.84-87.11,83.27-51.76,174.43-51.14,243.87,1.66,47.17,35.87,71.9,89,60.12,129.08-6.49,22.1-24.18,40.79-49.8,52.61C1984.75,1248.51,1962.8,1252.9,1940.77,1252.9Zm-134-142.64a13.39,13.39,0,0,1,13.4,13.25c.21,25.71,6.45,88.1,59.69,111.92,37.42,16.73,85.25,16.66,121.84-.23,24.29-11.21,41-28.78,47.09-49.47,11.21-38.19-12.78-89.06-58.35-123.7-67.72-51.49-156.77-52-238.2-1.39-41.65,25.89-59.91,66.22-65.08,79.72,12.82-3.95,48.2-14.72,65.59-18.8s39.62-8.65,51.32-11A13.81,13.81,0,0,1,1806.74,1110.26Zm-2.2,2.72h0Z"/><g class="cls-5"><path class="cls-2" d="M2053.7,1172.72a69.57,69.57,0,0,1-2.56,13.71c-16.78,57.19-106.37,80.8-172.35,51.29-54.22-24.26-60.94-86.74-61.16-114.19a10.9,10.9,0,0,0-13.11-10.55c-13.52,2.74-34.66,7.14-51.22,11-21.51,5.07-70.17,20.24-70.17,20.24s5.55-18.62,20.72-40.47c12.54-3.87,48.14-14.72,65.71-18.82,16.6-3.86,37.7-8.26,51.26-11a10.92,10.92,0,0,1,13.1,10.56c.23,27.44,6.95,89.93,61.17,114.18C1950.25,1223.3,2021.89,1210.87,2053.7,1172.72Z"/></g><g class="cls-3"><path class="cls-4" d="M2052.35,1181.66c-16.3-84.94-150.31-184.55-301.45-90.57a160.83,160.83,0,0,0-48.4,47.2c-11.15,3.38-19.37,5.93-19.37,5.93s15.92-53.47,67.77-85.68C1922.13,952.08,2071.31,1094,2052.35,1181.66Z"/></g><path class="cls-2" d="M1940.78,1265.59a167.75,167.75,0,0,1-68.11-14.17c-59.81-26.76-68.94-93.28-69.94-122.74-13.34,2.73-31.54,6.56-46,9.94-20.74,4.86-68.65,19.78-69.13,19.94a15,15,0,0,1-18.86-18.63c.71-2.41,18.2-59.33,74.23-94.17,87.86-54.61,184.32-53.74,258,2.32,51.22,39,77.77,97.58,64.56,142.58-7.52,25.63-27.61,47.09-56.56,60.45C1988.09,1260.76,1964.48,1265.59,1940.78,1265.59ZM1804.27,1098.3A28.44,28.44,0,0,1,1832.7,1126c.67,28.16,8.34,78.33,52.24,98,34.28,15.33,78,15.26,111.48-.17,21-9.67,35.28-24.45,40.32-41.63,9.63-32.78-13-79.14-53.91-110.21-63.41-48.21-147.16-48.48-224-.72-22.81,14.19-38,33.15-47.6,48.74,13.75-4.06,28.81-8.33,38.65-10.63,15.48-3.63,35-7.71,48.67-10.5A28.64,28.64,0,0,1,1804.27,1098.3Zm-2.73,15.29h0Z"/><path class="cls-1" d="M1182.41,758.26s6.55-389.7,324.8-374.59c36.57,1.74,219.44,27.11,296.57,167.83,11,20.09,11.15,51-22,51.38,0,0,63.81,77.25,51.91,162.74s-62.55,47.66-62.55,47.66,9.92,120.73-84,114.75Z"/><path class="cls-2" d="M1693.79,930.74q-3.33,0-6.78-.22a2.7,2.7,0,0,1-.63-.12L1181.62,760.63a2.52,2.52,0,0,1-1.71-2.42c0-2,4.65-198.67,119.85-306.69,54-50.65,123.85-74.29,207.57-70.34C1566.14,384,1734.44,419.79,1806,550.3c6.11,11.15,10.56,28.79,3,41.8-3.1,5.32-9.43,11.58-22.23,13,12.48,16.71,59.94,86,49.51,160.88-4.29,30.79-14.1,49.59-29.16,55.88-13.16,5.49-26.5-.15-33.11-3.87.51,15.62-.31,64.25-28,92.48C1732.68,923.94,1715.17,930.74,1693.79,930.74Zm-6.14-5.19c22.83,1.42,41.21-4.87,54.68-18.58,31-31.6,26.42-92.87,26.37-93.48a2.5,2.5,0,0,1,4-2.21c.17.13,17,12.45,32.46,5.94,13.3-5.57,22.09-23,26.11-52,11.62-83.43-50.72-160-51.36-160.8a2.5,2.5,0,0,1,1.9-4.09c11-.14,18.71-3.77,22.82-10.8,6.12-10.48,2.89-26.08-3-36.88-70.43-128.49-236.47-163.78-294.5-166.53-82.34-3.94-150.91,19.3-203.9,69-107.75,101-117.47,281.24-118.22,301.33Z"/><g class="cls-3"><path class="cls-4" d="M1775.35,815.86a36.83,36.83,0,0,1-4.17-2.59s10,120.75-84,114.75l-11.3-3.8c76.87-35.5,79.3-143.74,79.3-143.74A292.18,292.18,0,0,0,1775.35,815.86Z"/></g><g class="cls-3"><path class="cls-4" d="M1833.74,765.62c-2.75,19.63-1.83,50.46-36.45,55.94,48-95.83-71.68-235-71.68-235,33.12-.41,75.76,27.79,64.76,7.7-77.17-140.73-260-166.12-296.6-167.84-173.41-8.23-254.29,103.74-292,207.38,30.31-112.61,107.69-259.5,305.43-250.11,36.57,1.72,219.43,27.11,296.56,167.84,11,20.09,11.15,51-21.93,51.37C1781.84,602.88,1845.64,680.12,1833.74,765.62Z"/></g><path class="cls-2" d="M1693.88,943.27c-2.51,0-5.06-.09-7.66-.25a15.19,15.19,0,0,1-3.84-.75L1177.63,772.5A15,15,0,0,1,1167.4,758c.14-8.27,4.77-204,123.79-315.61,56.58-53.06,129.52-77.87,216.73-73.72,2.18.1,219.5,12.26,309,175.61,7.68,14,13,36.61,2.79,54.13a37.16,37.16,0,0,1-13.15,13.19c19.14,29.21,51.26,89.73,42,156.09-4.94,35.49-17.3,57.6-36.74,65.71a44.15,44.15,0,0,1-25.76,2.37c-1.49,23.62-7.86,59.62-31.26,83.46C1739.17,935.2,1718.69,943.27,1693.88,943.27ZM1690,913.14c18.54.86,32.73-4.09,43.39-15,22.47-22.89,24.09-68.15,22.81-83.67a15,15,0,0,1,24-13.26s11.58,8.07,20.2,4.4,15.26-19,18.48-42.1c10.82-77.72-48-150.4-48.62-151.12a15,15,0,0,1,11.41-24.57c6.33-.08,10.42-1.62,12.15-4.59,3-5.17,1.65-15.72-3.19-24.55-67.66-123.44-228-157.38-284.11-160-78.79-3.75-144.25,18.3-194.66,65.53-94.53,88.55-111.07,241.53-113.86,283.44Z"/><path class="cls-1" d="M910.92,911.24S574.19,715,422.26,995c-17.46,32.18-90.48,201.75-10.07,340.62,11.48,19.82,37.82,35.94,55.32,7.84,0,0,33,94.6,112.32,128.7S653,1443.37,653,1443.37s98.13,71,141.68-12.43Z"/><path class="cls-2" d="M619.83,1484.82q-16.91,0-41-10.35c-69.44-29.86-104.13-106.35-112-125.68-7.84,10.22-16.52,12.61-22.63,12.29-15.06-.24-27.85-13.18-34.22-24.18-74.58-128.8-18-291.31,10-343.07,40-73.67,96.39-121.14,167.7-141.11,152.06-42.58,322.71,55.37,324.42,56.36a2.5,2.5,0,0,1,1.18,2.71l-116.25,519.7a2.61,2.61,0,0,1-.22.61c-11.35,21.75-27.39,35.2-47.68,40-38.51,9.05-80.53-15.41-93.62-23.93-.24,7.58-2.33,21.9-13.84,30.32C636,1482.7,628.64,1484.82,619.83,1484.82ZM467.51,1341h.27a2.51,2.51,0,0,1,2.09,1.66c.33.94,33.61,94,111,127.23,26.82,11.54,46.33,13.07,58,4.56,13.58-9.92,11.73-30.62,11.71-30.83a2.49,2.49,0,0,1,1.24-2.41,2.53,2.53,0,0,1,2.71.14c.5.37,50.52,36.05,93.62,25.88,18.71-4.43,33.59-16.92,44.22-37.15L908.08,912.51c-17.58-9.77-176.78-94.8-319-55-70,19.59-125.34,66.25-164.63,138.68-27.71,51.06-83.53,211.36-10.1,338.17,6.17,10.66,17.83,21.5,30,21.69h.33c8,0,15-4.69,20.73-13.94A2.5,2.5,0,0,1,467.51,1341Z"/><g class="cls-3"><path class="cls-4" d="M910.93,911.23l-4.85,21.59C815.4,891.59,574.94,810.11,453.2,1034.54c-16.67,30.72-83.88,186.43-20.2,321.24-8.41-4-15.92-11.76-20.8-20.13-80.43-138.9-7.4-308.43,10.06-340.61C574.19,715,910.93,911.23,910.93,911.23Z"/></g><path class="cls-12" d="M913.83,1043.82c94.22,78.75,43.08,221.4-63.91,281.69s-257.87,53.16-323.54-63.38c-60.28-107-26.7-250.9,84.57-302.88C709,913.44,838.5,980.86,913.83,1043.82Z"/><path class="cls-2" d="M709.28,1365.45c-73.9,0-145-31-185.07-102.09a233.08,233.08,0,0,1-19.05-185c17.61-54.93,54.8-98,104.73-121.34,96.56-45.11,224.94,17.54,305.54,84.91h0c36.39,30.42,54,73.37,49.66,120.94-5.92,64.47-50.64,129.17-113.94,164.84C808,1352,758,1365.45,709.28,1365.45ZM682.63,946.67c-24.62,0-48.49,4.51-70.63,14.85-48.64,22.73-84.9,64.76-102.08,118.33a228.12,228.12,0,0,0,18.64,181.06c65,115.35,213.81,122.33,320.13,62.42,61.91-34.89,105.65-98.06,111.43-160.95,3-32.46-2.91-79.05-47.9-116.65h0C851.38,994.88,763.07,946.67,682.63,946.67Z"/><path class="cls-12" d="M936.46,1240.61a234.54,234.54,0,0,1-86.55,84.9c-107,60.27-257.85,53.17-323.52-63.38-60.31-107-26.7-250.91,84.56-302.87a163.07,163.07,0,0,1,58.87-14.65c86.56-5.63,183,48.25,244,99.21C975.85,1095.63,974.91,1175.13,936.46,1240.61Z"/><path class="cls-2" d="M709.29,1365.45c-73.91,0-145-31-185.08-102.1a233,233,0,0,1-19.06-185c17.61-54.94,54.81-98,104.74-121.35a166.11,166.11,0,0,1,59.77-14.87c86.45-5.62,183.62,47.86,245.76,99.78,57.31,47.87,66.42,126.37,23.2,200a238.28,238.28,0,0,1-87.48,85.81C808,1352,758,1365.45,709.29,1365.45ZM682.43,946.71c-4.18,0-8.32.13-12.45.4a161.33,161.33,0,0,0-58,14.41c-48.65,22.72-84.9,64.75-102.08,118.34a228.06,228.06,0,0,0,18.64,181c65,115.35,213.8,122.32,320.12,62.43a233.11,233.11,0,0,0,85.62-84h0c41.91-71.39,33.24-147.39-22.09-193.61C853.8,996.92,764.16,946.71,682.43,946.71Z"/><g class="cls-5"><path class="cls-2" d="M936.46,1240.61c-95.79,25.8-203.48,2.78-256.23-90.79-36.28-64.4-38.57-142.16-10.41-205.21,86.56-5.63,183,48.25,244,99.21C975.85,1095.63,974.91,1175.13,936.46,1240.61Z"/></g><path class="cls-2" d="M709.21,1378c-78,0-153.33-32.89-195.91-108.45a245.67,245.67,0,0,1-20.06-195c18.69-58.28,58.23-104,111.35-128.86C706.49,898,840,962.57,923.46,1032.29h0c39.64,33.14,58.86,79.91,54.1,131.7-6.28,68.44-53.49,137-120.27,174.6C812.33,1363.93,760.18,1378,709.21,1378ZM683,959.08c-23,0-45.17,4.2-65.69,13.78-45.45,21.24-79.35,60.59-95.46,110.82a215.55,215.55,0,0,0,17.63,171.08c61.15,108.54,202.12,114.55,303.08,57.66,58.43-32.93,99.69-92.27,105.1-151.18,2.71-29.48-2.64-71.78-43.45-105.9h0C845.19,1006,759.81,959.08,683,959.08Z"/><path class="cls-12" d="M1281.41,836.69c18.55,121.4,167.06,151.54,274,91.25s179-193,113.39-309.57c-60.29-107-200.78-152.8-302.88-84.56C1276,594,1266.57,739.65,1281.41,836.69Z"/><path class="cls-2" d="M1441.11,960.58c-30,0-59.16-6.07-84.46-18.38-43-20.91-70.55-58.24-77.72-105.13h0c-15.87-103.84-3-246.11,85.65-305.34,45.81-30.62,101.93-40.1,158-26.72A233.1,233.1,0,0,1,1671,617.14c66.54,118.09-5.88,251.87-114.34,313A237.82,237.82,0,0,1,1441.11,960.58ZM1283.88,836.31c8.86,58,45.65,87.12,75,101.39,56.78,27.64,133.48,22.95,195.39-11.93C1660.55,865.86,1731.67,735,1666.67,619.6a228,228,0,0,0-145.22-109.73c-54.73-13.07-109.45-3.82-154.09,26C1280.7,593.81,1268.23,733.93,1283.88,836.31Z"/><path class="cls-12" d="M1555.46,927.94c-40.33,22.76-86.59,32.63-129.55,29.55-71-5-133-45.17-144.52-120.79-12.77-83.59-7.55-203.26,51.66-273.25A156.07,156.07,0,0,1,1366,533.82c102.09-68.26,242.56-22.45,302.87,84.57C1734.53,734.9,1662.44,867.67,1555.46,927.94Z"/><path class="cls-2" d="M1441.45,960.54q-7.87,0-15.71-.55c-79.82-5.58-136.08-52.67-146.82-122.92-13.36-87.43-6.65-205.64,52.23-275.24a159,159,0,0,1,33.45-30.09c45.8-30.62,101.91-40.13,158-26.74A233.1,233.1,0,0,1,1671,617.16c30.64,54.35,33.54,117.58,8.18,178.06-23,54.82-67.65,104-122.52,134.9A236.7,236.7,0,0,1,1441.45,960.54Zm31.67-456.45a189,189,0,0,0-105.75,31.81,154.6,154.6,0,0,0-32.4,29.15c-57.8,68.33-64.3,184.93-51.11,271.27,10.37,67.8,64.87,113.28,142.23,118.68,43.69,3.15,89.18-7.25,128.14-29.24h0c53.93-30.38,97.8-78.66,120.37-132.47,17.51-41.76,30.35-105.78-7.92-173.68a228.13,228.13,0,0,0-145.23-109.75A208.33,208.33,0,0,0,1473.12,504.09Z"/><g class="cls-5"><path class="cls-2" d="M1425.91,957.49c-71-5-133-45.17-144.52-120.79-12.77-83.59-7.55-203.26,51.66-273.25,66,10.4,128.2,51.93,163.23,114.15C1552.68,777.67,1507.55,889.64,1425.91,957.49Z"/></g><path class="cls-2" d="M1441.09,973.05c-31.95,0-62.95-6.47-89.91-19.6-46.76-22.76-76.82-63.42-84.62-114.49h0c-16.43-107.47-2.44-255.14,91.06-317.64,48.74-32.57,108.37-42.69,167.9-28.49A245.65,245.65,0,0,1,1681.93,611c70.39,124.91-5.28,265.9-119.1,330A250.4,250.4,0,0,1,1441.09,973.05ZM1296.25,834.42c8,52.59,41.46,79.07,68.07,92,53.19,25.88,125.32,21.34,183.77-11.59,101-56.89,168.83-180.59,107.67-289.12a215.53,215.53,0,0,0-137.21-103.69c-51.3-12.24-102.53-3.64-144.23,24.25-81.77,54.65-93.16,189.37-78.07,288.12Z"/><path class="cls-2" d="M619.93,1497.29c-13.12,0-28.5-3.77-46-11.31-61.55-26.47-96.68-85.3-111.76-116.81a36.35,36.35,0,0,1-18.09,4.43c-20.29-.33-36.84-16.6-44.85-30.43C305.84,1182,408,989.79,409.06,987.86,450.7,911.1,509.69,861.58,584.39,840.67c157.12-44,326.94,53.42,334.1,57.59a15,15,0,0,1,7.09,16.26l-116.25,519.7a15,15,0,0,1-1.35,3.67c-13.1,25.12-31.91,40.72-55.89,46.38-32.53,7.66-66.62-5.53-87.59-16.49a44.14,44.14,0,0,1-15.36,20.81C641.19,1494.39,631.43,1497.29,619.93,1497.29ZM467.51,1328.46a15.2,15.2,0,0,1,1.65.09,15,15,0,0,1,12.53,10c.3.87,32,88.85,104.08,119.85,21.43,9.22,38,11.41,45.57,6s6.71-19.54,6.7-19.68a15.05,15.05,0,0,1,23.76-13.51c.44.32,46.06,32.68,83.47,23.82,14.78-3.51,26.31-13.12,35.19-29.35L893.78,919.06c-37.29-19.33-176.73-84.43-301.43-49.43-66.51,18.66-119.29,63.26-156.88,132.56-26.78,49.35-80.82,204.11-10.28,325.93,5.05,8.71,13.36,15.35,19.34,15.45,3.37.07,6.88-2.65,10.23-8A15,15,0,0,1,467.51,1328.46Z"/><path class="cls-1" d="M1033.58,769c259.17-146,608.94-7.89,724.63,197.43,124.72,221.33-32.35,429.93-289.48,574.82s-516.92,171.18-641.64-50.15C711.4,1285.75,774.41,915,1033.58,769Z"/><path class="cls-2" d="M1109.26,1656.11c-3.72,0-7.4,0-11.07-.14-122-3.23-213.9-58.3-273.28-163.68-57.73-102.45-71.77-246.42-37.57-385.11,37.37-151.54,124.38-272.43,245-340.4l1.23,2.18-1.23-2.18c259.1-146,610.14-10.86,728,198.38,59.38,105.38,58.86,212.56-1.56,318.54-53.23,93.4-153.12,183.2-288.87,259.68C1338.84,1617.27,1214.43,1656.11,1109.26,1656.11Zm163.62-945.55c-85.39,0-166.67,20.34-238.07,60.57-119.42,67.29-205.58,187.06-242.62,337.25-33.9,137.48-20,280.08,37.08,381.46,58.46,103.74,149,158,269.06,161.13,106.5,2.84,234.21-35.9,369.17-111.94s234.21-165.2,287-257.8c59.48-104.35,60-209.87,1.55-313.62C1698.91,866.25,1584.12,780.52,1449,738.3,1389.58,719.76,1330.3,710.56,1272.88,710.56Z"/><g class="cls-3"><path class="cls-4" d="M1791.08,1200.85c6.53-60.53-6-123.39-42-187.26-115.69-205.32-465.46-343.46-724.62-197.43-132.1,74.42-213.25,207.27-245.76,346.8,24-156.17,107.91-311.21,254.84-394,259.2-146,609-7.89,724.66,197.43C1803.66,1047.05,1811.69,1126,1791.08,1200.85Z"/></g><g class="cls-5"><path class="cls-2" d="M1777.26,1240.76c-47.87,114.53-162,217.82-308.54,300.43-257.1,144.9-516.9,171.19-641.64-50.13-85.35-151.51-73.45-393.1,42.84-568-75.58,164-74.31,361.67-.71,492.31,124.74,221.31,384.54,195,641.64,50.12C1624.36,1401.55,1718.38,1325.17,1777.26,1240.76Z"/></g><path class="cls-4" d="M1532,1322.07c35.67,63.3-9.28,131.9-87.55,176s-160.23,47-195.9-16.29,14.22-123.12,92.49-167.22S1496.31,1258.77,1532,1322.07Z"/><path class="cls-2" d="M1109.23,1668.63c-3.82,0-7.6-.05-11.37-.15-126.66-3.35-222.16-60.56-283.85-170-59.26-105.16-73.77-252.54-38.83-394.24,38.2-154.93,127.36-278.63,251-348.32h0c265.14-149.4,624.41-11,745.09,203.14,61.69,109.49,61.16,220.82-1.59,330.89-54.35,95.36-155.88,186.79-293.61,264.39C1343.11,1629.23,1216.57,1668.63,1109.23,1668.63ZM1041,782c-116.37,65.58-200.4,182.54-236.6,329.33-33.16,134.47-19.77,273.66,35.83,372.32,56.14,99.64,143.11,151.71,258.48,154.76,104.23,2.69,229.71-35.39,362.7-110.33S1692,1365.67,1743.61,1275c57.16-100.26,57.67-201.63,1.52-301.27-55.6-98.66-167.71-182.22-299.91-223.5C1300.91,705.18,1157.33,716.47,1041,782ZM1033.58,769h0Z"/><path class="cls-2" d="M1571.08,1033.51c10.5,7.77,16.77,19.23,21,30.89a91.08,91.08,0,0,1,4.46,37.37,85.19,85.19,0,0,1-12.23,37.1,86.72,86.72,0,0,1-28,27.92,88.83,88.83,0,0,1-37.13,13,78.13,78.13,0,0,1-38.89-6c-23.82-10.45-41.36-30.8-48-53.86a5.06,5.06,0,0,1,9-4.35l.12.17c12.26,17.15,29.28,29.88,47.33,34.69,18,5,36,1.25,51.59-8.88,15.27-10.09,25.6-25.1,29.73-43.66a93.24,93.24,0,0,0,1.83-29,74.62,74.62,0,0,0-7.91-28.43l-.33-.62a5,5,0,0,1,7.46-6.41Z"/><path class="cls-2" d="M1002.11,1352.76a74.88,74.88,0,0,0,20.22,21.5,93.57,93.57,0,0,0,25.71,13.43c18,6.08,36.21,5,52.75-2.82,16.73-8.07,29.28-21.5,34.33-39.53,5.23-17.93,3.16-39.08-5.16-58.45l-.08-.19a5.06,5.06,0,0,1,8.37-5.43c16.28,17.62,24.61,43.17,21.2,69a78.1,78.1,0,0,1-15,36.36,89,89,0,0,1-30.34,25,86.86,86.86,0,0,1-38.37,9.45,85.09,85.09,0,0,1-38.06-8.76,91,91,0,0,1-29.66-23.17c-7.81-9.62-14.36-20.92-15.58-33.92a5,5,0,0,1,9.35-3.07Z"/><path class="cls-2" d="M1239.72,1147.59a45.18,45.18,0,0,1,21.65-12.21c51.86-12.3,126.85,32.87,164.92,78.33,35.09,41.9,72.61,116.43-35.21,177.18S1239,1381,1221.29,1329.22C1202.13,1273.11,1202.33,1185.57,1239.72,1147.59Z"/><path class="cls-1" d="M895.7,937.18c-20.71-70,43-311,136-271.63,13.69,5.79,41.85,29.59,24.65,65-15.69,32.34-26.49,66.95-23.15,59.46,16.14-36.19,98-148.44,147.84-104.95,23.74,20.71,6.86,66.88-19.11,89.31"/><path class="cls-2" d="M895.7,939.68a2.5,2.5,0,0,1-2.4-1.79c-15.78-53.31,17.36-208.27,76.44-261.06,20.26-18.11,41.44-22.69,63-13.59,7.72,3.27,22.46,13.27,28.76,30,4.58,12.18,3.62,25.1-2.83,38.41-5.87,12.09-11,24.31-14.91,34.5,21.76-34.11,63.12-83.9,101-92.24,14.51-3.2,27.3-.09,38,9.26,8,7,12.26,17.26,12.23,29.66-.06,21.46-12.94,47.54-31.35,63.43a2.5,2.5,0,0,1-3.26-3.78c17.38-15,29.56-39.55,29.61-59.66,0-10.91-3.61-19.86-10.51-25.88-9.45-8.25-20.77-11-33.65-8.15-46.24,10.18-98.29,85.38-110.27,112.24-.47,1-1,2.35-2.62,2.5a2.44,2.44,0,0,1-2.31-1.07c-2.18-3.14,14.67-44.7,23.55-63,5.83-12,6.73-23.62,2.65-34.46-5.72-15.21-19.52-24.44-26-27.19-19.58-8.28-39-4-57.69,12.71-57.93,51.76-90.44,203.66-75,255.92a2.5,2.5,0,0,1-1.69,3.1A2.53,2.53,0,0,1,895.7,939.68Z"/><g class="cls-3"><path class="cls-4" d="M1033.23,785.05l-3.19,16.7a9.66,9.66,0,0,0,7.57,11.27h0a21.75,21.75,0,0,0,24.07-12.38C1073,775.87,1101.75,727,1145,712.53c0,0,35.12-22.07,41.31,22.71l6.11-46.74-16-18.44-37.94,3.25-46,26.72-18.86,24.8Z"/></g><g class="cls-3"><path class="cls-4" d="M1056.73,690.55c.34.14.72.35,1.07.51-6.24-13.39-18.41-22.27-26.07-25.51-93-39.33-156.74,201.67-136,271.63l21.12-12.91C918.29,830.6,976.65,656.69,1056.73,690.55Z"/></g><path class="cls-2" d="M895.69,952.21a15,15,0,0,1-14.39-10.76c-17-57.37,16.88-217.46,80.09-274,30.14-26.94,58.06-23.46,76.19-15.79,11.87,5,28.31,17.77,35.6,37.17a56.12,56.12,0,0,1,3.44,15.51c20.06-20.52,43-37.74,65.39-42.67,18.33-4,35.26.12,48.94,12.06,10.84,9.46,16.55,23,16.51,39.12-.07,25.21-14.4,54.5-35.68,72.87A15,15,0,1,1,1152.14,763c14.37-12.41,25.24-34,25.28-50.21,0-7.28-2.08-12.8-6.22-16.42-6.47-5.65-13.69-7.34-22.73-5.35-39.36,8.67-89.65,78.48-101.53,105.11-3.5,7.86-9.58,9.56-12.88,9.87a15.09,15.09,0,0,1-13.77-6.41c-5-7.24-3-12.78,4.68-33.4,3.84-10.33,10.06-26,17.89-42.2,4.34-8.93,5.06-17,2.2-24.59-3.89-10.35-13.83-17.79-19.18-20.06-9.53-4-24.51-7.33-44.47,10.51-53.27,47.61-85.9,193.73-71.31,243a15,15,0,0,1-14.41,19.29Z"/><g class="cls-13"><path class="cls-4" d="M1249.24,1246.49c-18.86,19.27-.84,70.9,18.12,91.65,19.65,21.49,35.41,30.6,46.91,19.67,16-15.26,6.51-37.56-10.67-58.42C1291.45,1284.64,1272.51,1222.72,1249.24,1246.49Z"/><path class="cls-2" d="M1303.26,1365h-.67c-9.95-.35-21.73-8.33-37.07-25.12-18.37-20.1-38.63-74.06-18.07-95.07h0c4.62-4.72,9.51-6.75,14.56-6,13.16,2,23.58,22.34,32.78,40.3,4,7.72,7.69,15,10.74,18.72,27.4,33.27,20.81,52,10.46,61.83A18.08,18.08,0,0,1,1303.26,1365ZM1251,1248.24c-17.19,17.57-.82,67.41,18.19,88.21,14.18,15.51,25.15,23.19,33.55,23.49,3.68.22,6.86-1.16,9.79-3.94,12.81-12.19,9.16-30.7-10.88-55-3.39-4.11-7.07-11.3-11.33-19.63-8.22-16-18.45-36-29.08-37.63-3.4-.53-6.75,1-10.24,4.52Z"/></g><path class="cls-1" d="M1797.56,1710.71c124.67,6,203.73-50.15,238.67,71.64,5.68,19.82,5.34,48,20.86,92.68,36,103.51,189.55,127.35,266.88,83.71,147-83-30.57-219.09-30.57-219.09s53.87-371.2-310-234.31"/><path class="cls-2" d="M2234.58,1982.1a239.73,239.73,0,0,1-83.86-15.07c-47.72-18-81.81-50.4-96-91.17-10.09-29-13.49-50.89-16.23-68.47-1.45-9.37-2.71-17.46-4.68-24.35-24.66-86-71.61-81.24-142.65-74.08-27.62,2.77-58.93,5.94-93.74,4.25a2.5,2.5,0,1,1,.24-5c34.44,1.63,65.55-1.48,93-4.23,70.91-7.15,122.15-12.29,148,77.68,2.06,7.18,3.34,15.42,4.83,25,2.7,17.38,6.06,39,16,67.58,13.68,39.35,46.72,70.65,93,88.14,57.34,21.66,125.76,19.33,170.27-5.79,35.64-20.12,54.75-45.1,56.8-74.25,4.84-68.93-86.74-140-87.67-140.67a2.52,2.52,0,0,1-1-2.34c.23-1.6,22.14-160.47-63.76-229.57-52.52-42.24-134.25-42.93-242.91-2a2.5,2.5,0,0,1-1.76-4.68c110.45-41.55,193.82-40.59,247.81,2.84,83.65,67.3,67.79,216.36,65.76,232.72,11.24,8.86,93.25,76,88.47,144.1-2.17,30.93-22.14,57.26-59.34,78.25C2300.3,1975,2268.16,1982.1,2234.58,1982.1Z"/><g class="cls-3"><path class="cls-4" d="M2358.42,1937.79c24.81-157.92-105.87-129.1-105.87-129.1s85.55-360.67-255.17-290.21c-7.66,1.58-13.46-6.71-9-13.15h0c363.89-136.86,310,234.31,310,234.31S2448.57,1854.73,2358.42,1937.79Z"/></g><g class="cls-5"><path class="cls-2" d="M2324,1958.74c-77.35,43.63-230.89,19.79-266.9-83.7-15.51-44.64-15.17-72.88-20.84-92.67-35-121.81-114-65.67-238.66-71.64l59.36-65.64c102.92-4,169.5-37.44,200.74,71.53,5.67,19.83,5.33,48,20.88,92.67,36,103.53,189.54,127.37,266.86,83.7,15.35-8.67,27.18-17.91,36-27.52C2385.82,1897.8,2372.79,1931.18,2324,1958.74Z"/></g><path class="cls-2" d="M1798.28,1695.71a476.09,476.09,0,0,0,58.18-1.17c19.57-1.42,39.29-3.88,59.79-5.51a296,296,0,0,1,31.63-1,128.33,128.33,0,0,1,33.58,5,83.28,83.28,0,0,1,31.56,17.56,104.64,104.64,0,0,1,21.6,27.48c5.54,9.86,9.44,20,12.94,30.16,1.55,5.1,3.28,10,4.58,15.79,1.27,5.52,2.12,10.74,2.92,15.76,3,20,6.27,38.42,11.88,56.8,1.35,4.58,2.87,9.14,4.4,13.64,1.68,4.1,3.09,8.32,5.18,12.23a124,124,0,0,0,6.4,11.63,132.91,132.91,0,0,0,7.85,10.78,122.91,122.91,0,0,0,19,19,148.27,148.27,0,0,0,22.65,15.32c32.23,17.87,70.52,26,107.91,25.12a188,188,0,0,0,54.61-9.16,126.1,126.1,0,0,0,24.42-11.25,139.47,139.47,0,0,0,22-15.75l4.9-4.42,4.27-4.79c3.1-3,5-6.7,7.57-10a67.88,67.88,0,0,0,8.32-22.47c2.3-15.83-1.55-33.12-9.56-49.37-7.8-16.33-19.12-31.67-31.6-46-6.3-7.14-13-14-19.91-20.64S2291,1757.41,2284,1752a15.72,15.72,0,0,1-5.94-14.24l0-.28c1.13-9.36,1.86-19.89,2.14-29.94s.31-20.35-.22-30.48a330.82,330.82,0,0,0-7.44-59.93c-4.48-19.41-10.54-38.32-19.62-55.39a138.23,138.23,0,0,0-35.73-43.86,132.06,132.06,0,0,0-51-24.91c-4.68-1.33-9.6-1.89-14.4-2.9-2.43-.4-4.81-1.06-7.29-1.24l-7.44-.58-7.45-.61a55.24,55.24,0,0,0-7.51-.38l-15.15.11c-5.06-.18-10.14.59-15.22,1l-15.29,1.36c-10.14,1.72-20.37,3.12-30.55,5.1-10.11,2.31-20.35,4.29-30.46,6.89-10,2.91-20.14,5.66-30.31,8.37l-.26.07a5,5,0,0,1-3.26-9.45c9.79-4.19,19.64-8.33,29.57-12.33,10-3.81,20.27-7,30.44-10.55,10.3-3.17,20.89-5.48,31.38-8.26l16.11-2.8c5.4-.83,10.74-2,16.26-2.26l16.5-1.32c5.5-.54,11.11,0,16.68,0l8.38.2c2.8.06,5.6.62,8.4.91,5.59.82,11.24,1.2,16.8,2.42a155.78,155.78,0,0,1,63.15,27.64c18.88,13.94,33.89,32.53,45,52.52a232.81,232.81,0,0,1,23.47,63.32,361.9,361.9,0,0,1,8,65.67c.44,11,.22,21.91-.18,32.85s-1.29,21.62-2.85,33.21l-5.91-14.52c8.71,6.94,16.14,13.74,23.75,21s14.74,14.82,21.64,22.74c13.68,15.92,26.37,33.15,35.79,53,9.56,19.52,15.66,42.92,12.14,66.94a97.75,97.75,0,0,1-12.39,33.53c-3.39,4.73-6.45,9.88-10.44,14-1.91,2.13-3.8,4.32-5.76,6.38l-6.23,5.68a169.15,169.15,0,0,1-26.72,19.14,155.06,155.06,0,0,1-30,13.82,217.42,217.42,0,0,1-63.44,10.75c-42.51.95-85.37-8-123.36-28.92a178.07,178.07,0,0,1-27-18.3,153.45,153.45,0,0,1-23.35-23.42,163.66,163.66,0,0,1-9.81-13.5,157.07,157.07,0,0,1-8.09-14.66,161.93,161.93,0,0,1-6.51-15.43c-1.69-5-3.33-9.91-4.82-14.94-6.13-20-9.87-41.1-12.77-60.68-.76-4.86-1.55-9.53-2.53-13.78-.85-4-2.45-8.56-3.81-13-3-8.77-6.36-17.39-10.66-25-8.6-15.41-20.1-26.46-35.77-31-15.67-4.77-34.74-4.25-54-2.79s-39.48,4-59.86,5.51a505.63,505.63,0,0,1-61.88,1.23,15,15,0,0,1,1.33-30Z"/><path class="cls-2" d="M2201,1832.24c18.88-13.15,36-27.71,49.36-43.78,6.8-8,11.92-16.72,16.73-25.14s7.71-17.44,11.57-26.52l.8-1.88a15,15,0,0,1,28.69,7.59c-.38,3.28-1,6.56-1.59,9.84-.36,1.62-.66,3.27-1.07,4.89s-1.12,3.13-1.69,4.69a87.7,87.7,0,0,1-3.75,9.25c-1.58,2.91-3.14,5.83-4.87,8.65a110.9,110.9,0,0,1-26.15,28.24,147.49,147.49,0,0,1-31.9,18.61c-11.24,4.64-22.7,8.2-34.74,9.62a2.19,2.19,0,0,1-1.51-4Z"/><ellipse class="cls-2" cx="1454.38" cy="1414.16" rx="32.7" ry="36.64"/><path d="M704.18,554.72a14.41,14.41,0,0,1-10.86-23.88l52-59.58L700,474.11a14.41,14.41,0,0,1-1.81-28.76l79.73-5a14.42,14.42,0,0,1,11.77,23.86l-52,59.58L783,520.92a14.41,14.41,0,0,1,1.81,28.76l-79.74,5Z"/><path d="M476,420.63a14.41,14.41,0,0,1-10.86-23.88l102-116.92L468.43,286a14.41,14.41,0,0,1-1.8-28.76l133.13-8.37a14.41,14.41,0,0,1,11.76,23.85l-102,116.91,98.68-6.2A14.41,14.41,0,1,1,610,412.23L476.89,420.6Z"/><path d="M693.12,231.45A15.39,15.39,0,0,1,681.53,206L832.35,33.05,682.21,42.49a15.38,15.38,0,1,1-1.93-30.7L867.21,0A15.37,15.37,0,0,1,879.76,25.5L729,198.4,879.09,189a15.38,15.38,0,0,1,1.92,30.7L694.09,231.41C693.77,231.44,693.44,231.45,693.12,231.45Z"/></g></g></svg>